M48
;DRILL file {KiCad 5.0.2-bee76a0~70~ubuntu16.04.1} date Wed 20 Mar 2019 11:43:54 AM CET
;FORMAT={-:-/ absolute / inch / decimal}
FMAT,2
INCH,TZ
T1C0.0157
T2C0.0362
T3C0.0374
T4C0.0394
T5C0.0400
T6C0.0787
T7C0.0917
T8C0.1457
%
G90
G05
T1
X4.7244Y-2.1654
X4.7638Y-2.2047
X4.9213Y-2.7362
X4.9213Y-2.7756
X4.9213Y-2.815
X5.0394Y-2.126
X5.2756Y-2.7362
X5.2756Y-2.7756
X5.2756Y-2.815
X5.8465Y-1.9094
X5.8465Y-2.185
X5.9094Y-2.2205
X6.1417Y-1.9094
X6.1811Y-1.8701
X6.2559Y-2.185
X6.378Y-2.2441
X6.3833Y-2.1009
X6.4961Y-1.9488
T2
X4.8622Y-2.3622
X4.8622Y-2.4409
X4.9606Y-2.3622
X4.9606Y-2.4409
T3
X6.0039Y-2.5591
X6.1024Y-2.5591
X6.2008Y-2.5591
T4
X5.4134Y-2.0866
X5.4134Y-2.6575
X5.5118Y-2.6575
X5.6102Y-2.0866
X5.6102Y-2.6575
X4.2323Y-2.0866
X4.2323Y-2.6575
X4.3307Y-2.6575
X4.4291Y-2.0866
X4.4291Y-2.6575
X6.5945Y-2.0866
X6.5945Y-2.6575
X6.6929Y-2.6575
X6.7913Y-2.0866
X6.7913Y-2.6575
T5
X6.5535Y-1.8504
X6.6535Y-1.8504
X6.7535Y-1.8504
T7
X4.6744Y-2.5476
X5.1484Y-2.5476
T8
X7.126Y-1.9291
X7.126Y-2.7953
X3.8976Y-2.7953
X3.8976Y-1.9291
T6
X5.2913Y-2.372G85X5.2913Y-2.3524
G05
X5.7323Y-2.372G85X5.7323Y-2.3524
G05
X4.1102Y-2.372G85X4.1102Y-2.3524
G05
X4.5512Y-2.372G85X4.5512Y-2.3524
G05
X6.4724Y-2.372G85X6.4724Y-2.3524
G05
X6.9134Y-2.372G85X6.9134Y-2.3524
G05
T0
M30
