G04 #@! TF.GenerationSoftware,KiCad,Pcbnew,5.0.2-bee76a0~70~ubuntu16.04.1*
G04 #@! TF.CreationDate,2019-03-20T11:43:52+01:00*
G04 #@! TF.ProjectId,controller,636f6e74-726f-46c6-9c65-722e6b696361,rev?*
G04 #@! TF.SameCoordinates,Original*
G04 #@! TF.FileFunction,Soldermask,Top*
G04 #@! TF.FilePolarity,Negative*
%FSLAX46Y46*%
G04 Gerber Fmt 4.6, Leading zero omitted, Abs format (unit mm)*
G04 Created by KiCad (PCBNEW 5.0.2-bee76a0~70~ubuntu16.04.1) date Wed 20 Mar 2019 11:43:52 AM CET*
%MOMM*%
%LPD*%
G01*
G04 APERTURE LIST*
%ADD10C,0.100000*%
G04 APERTURE END LIST*
D10*
G36*
X182079249Y-67442188D02*
X182456597Y-67598491D01*
X182752607Y-67721102D01*
X183130609Y-67973675D01*
X183358616Y-68126024D01*
X183873976Y-68641384D01*
X183873978Y-68641387D01*
X184278898Y-69247393D01*
X184278898Y-69247394D01*
X184557812Y-69920751D01*
X184700000Y-70635580D01*
X184700000Y-71364420D01*
X184557812Y-72079249D01*
X184394428Y-72473693D01*
X184278898Y-72752607D01*
X183876705Y-73354531D01*
X183873976Y-73358616D01*
X183358616Y-73873976D01*
X183358613Y-73873978D01*
X182752607Y-74278898D01*
X182473693Y-74394428D01*
X182079249Y-74557812D01*
X181364420Y-74700000D01*
X180635580Y-74700000D01*
X179920751Y-74557812D01*
X179526307Y-74394428D01*
X179247393Y-74278898D01*
X178641387Y-73873978D01*
X178641384Y-73873976D01*
X178126024Y-73358616D01*
X178123295Y-73354531D01*
X177721102Y-72752607D01*
X177605572Y-72473693D01*
X177442188Y-72079249D01*
X177300000Y-71364420D01*
X177300000Y-70635580D01*
X177442188Y-69920751D01*
X177721102Y-69247394D01*
X177721102Y-69247393D01*
X178126022Y-68641387D01*
X178126024Y-68641384D01*
X178641384Y-68126024D01*
X178869391Y-67973675D01*
X179247393Y-67721102D01*
X179543403Y-67598491D01*
X179920751Y-67442188D01*
X180635580Y-67300000D01*
X181364420Y-67300000D01*
X182079249Y-67442188D01*
X182079249Y-67442188D01*
G37*
G36*
X100079249Y-67442188D02*
X100456597Y-67598491D01*
X100752607Y-67721102D01*
X101130609Y-67973675D01*
X101358616Y-68126024D01*
X101873976Y-68641384D01*
X101873978Y-68641387D01*
X102278898Y-69247393D01*
X102278898Y-69247394D01*
X102557812Y-69920751D01*
X102700000Y-70635580D01*
X102700000Y-71364420D01*
X102557812Y-72079249D01*
X102394428Y-72473693D01*
X102278898Y-72752607D01*
X101876705Y-73354531D01*
X101873976Y-73358616D01*
X101358616Y-73873976D01*
X101358613Y-73873978D01*
X100752607Y-74278898D01*
X100473693Y-74394428D01*
X100079249Y-74557812D01*
X99364420Y-74700000D01*
X98635580Y-74700000D01*
X97920751Y-74557812D01*
X97526307Y-74394428D01*
X97247393Y-74278898D01*
X96641387Y-73873978D01*
X96641384Y-73873976D01*
X96126024Y-73358616D01*
X96123295Y-73354531D01*
X95721102Y-72752607D01*
X95605572Y-72473693D01*
X95442188Y-72079249D01*
X95300000Y-71364420D01*
X95300000Y-70635580D01*
X95442188Y-69920751D01*
X95721102Y-69247394D01*
X95721102Y-69247393D01*
X96126022Y-68641387D01*
X96126024Y-68641384D01*
X96641384Y-68126024D01*
X96869391Y-67973675D01*
X97247393Y-67721102D01*
X97543403Y-67598491D01*
X97920751Y-67442188D01*
X98635580Y-67300000D01*
X99364420Y-67300000D01*
X100079249Y-67442188D01*
X100079249Y-67442188D01*
G37*
G36*
X138500000Y-68500000D02*
X136500000Y-68500000D01*
X136500000Y-66500000D01*
X138500000Y-66500000D01*
X138500000Y-68500000D01*
X138500000Y-68500000D01*
G37*
G36*
X140175770Y-66515372D02*
X140291689Y-66538429D01*
X140473678Y-66613811D01*
X140637463Y-66723249D01*
X140776751Y-66862537D01*
X140886189Y-67026322D01*
X140961571Y-67208311D01*
X141000000Y-67401509D01*
X141000000Y-67598491D01*
X140961571Y-67791689D01*
X140886189Y-67973678D01*
X140776751Y-68137463D01*
X140637463Y-68276751D01*
X140473678Y-68386189D01*
X140291689Y-68461571D01*
X140175770Y-68484628D01*
X140098493Y-68500000D01*
X139901507Y-68500000D01*
X139824230Y-68484628D01*
X139708311Y-68461571D01*
X139526322Y-68386189D01*
X139362537Y-68276751D01*
X139223249Y-68137463D01*
X139113811Y-67973678D01*
X139038429Y-67791689D01*
X139000000Y-67598491D01*
X139000000Y-67401509D01*
X139038429Y-67208311D01*
X139113811Y-67026322D01*
X139223249Y-66862537D01*
X139362537Y-66723249D01*
X139526322Y-66613811D01*
X139708311Y-66538429D01*
X139824230Y-66515372D01*
X139901507Y-66500000D01*
X140098493Y-66500000D01*
X140175770Y-66515372D01*
X140175770Y-66515372D01*
G37*
G36*
X108500000Y-68500000D02*
X106500000Y-68500000D01*
X106500000Y-66500000D01*
X108500000Y-66500000D01*
X108500000Y-68500000D01*
X108500000Y-68500000D01*
G37*
G36*
X110175770Y-66515372D02*
X110291689Y-66538429D01*
X110473678Y-66613811D01*
X110637463Y-66723249D01*
X110776751Y-66862537D01*
X110886189Y-67026322D01*
X110961571Y-67208311D01*
X111000000Y-67401509D01*
X111000000Y-67598491D01*
X110961571Y-67791689D01*
X110886189Y-67973678D01*
X110776751Y-68137463D01*
X110637463Y-68276751D01*
X110473678Y-68386189D01*
X110291689Y-68461571D01*
X110175770Y-68484628D01*
X110098493Y-68500000D01*
X109901507Y-68500000D01*
X109824230Y-68484628D01*
X109708311Y-68461571D01*
X109526322Y-68386189D01*
X109362537Y-68276751D01*
X109223249Y-68137463D01*
X109113811Y-67973678D01*
X109038429Y-67791689D01*
X109000000Y-67598491D01*
X109000000Y-67401509D01*
X109038429Y-67208311D01*
X109113811Y-67026322D01*
X109223249Y-66862537D01*
X109362537Y-66723249D01*
X109526322Y-66613811D01*
X109708311Y-66538429D01*
X109824230Y-66515372D01*
X109901507Y-66500000D01*
X110098493Y-66500000D01*
X110175770Y-66515372D01*
X110175770Y-66515372D01*
G37*
G36*
X112675770Y-66515372D02*
X112791689Y-66538429D01*
X112973678Y-66613811D01*
X113137463Y-66723249D01*
X113276751Y-66862537D01*
X113386189Y-67026322D01*
X113461571Y-67208311D01*
X113500000Y-67401509D01*
X113500000Y-67598491D01*
X113461571Y-67791689D01*
X113386189Y-67973678D01*
X113276751Y-68137463D01*
X113137463Y-68276751D01*
X112973678Y-68386189D01*
X112791689Y-68461571D01*
X112675770Y-68484628D01*
X112598493Y-68500000D01*
X112401507Y-68500000D01*
X112324230Y-68484628D01*
X112208311Y-68461571D01*
X112026322Y-68386189D01*
X111862537Y-68276751D01*
X111723249Y-68137463D01*
X111613811Y-67973678D01*
X111538429Y-67791689D01*
X111500000Y-67598491D01*
X111500000Y-67401509D01*
X111538429Y-67208311D01*
X111613811Y-67026322D01*
X111723249Y-66862537D01*
X111862537Y-66723249D01*
X112026322Y-66613811D01*
X112208311Y-66538429D01*
X112324230Y-66515372D01*
X112401507Y-66500000D01*
X112598493Y-66500000D01*
X112675770Y-66515372D01*
X112675770Y-66515372D01*
G37*
G36*
X168500000Y-68500000D02*
X166500000Y-68500000D01*
X166500000Y-66500000D01*
X168500000Y-66500000D01*
X168500000Y-68500000D01*
X168500000Y-68500000D01*
G37*
G36*
X172675770Y-66515372D02*
X172791689Y-66538429D01*
X172973678Y-66613811D01*
X173137463Y-66723249D01*
X173276751Y-66862537D01*
X173386189Y-67026322D01*
X173461571Y-67208311D01*
X173500000Y-67401509D01*
X173500000Y-67598491D01*
X173461571Y-67791689D01*
X173386189Y-67973678D01*
X173276751Y-68137463D01*
X173137463Y-68276751D01*
X172973678Y-68386189D01*
X172791689Y-68461571D01*
X172675770Y-68484628D01*
X172598493Y-68500000D01*
X172401507Y-68500000D01*
X172324230Y-68484628D01*
X172208311Y-68461571D01*
X172026322Y-68386189D01*
X171862537Y-68276751D01*
X171723249Y-68137463D01*
X171613811Y-67973678D01*
X171538429Y-67791689D01*
X171500000Y-67598491D01*
X171500000Y-67401509D01*
X171538429Y-67208311D01*
X171613811Y-67026322D01*
X171723249Y-66862537D01*
X171862537Y-66723249D01*
X172026322Y-66613811D01*
X172208311Y-66538429D01*
X172324230Y-66515372D01*
X172401507Y-66500000D01*
X172598493Y-66500000D01*
X172675770Y-66515372D01*
X172675770Y-66515372D01*
G37*
G36*
X170175770Y-66515372D02*
X170291689Y-66538429D01*
X170473678Y-66613811D01*
X170637463Y-66723249D01*
X170776751Y-66862537D01*
X170886189Y-67026322D01*
X170961571Y-67208311D01*
X171000000Y-67401509D01*
X171000000Y-67598491D01*
X170961571Y-67791689D01*
X170886189Y-67973678D01*
X170776751Y-68137463D01*
X170637463Y-68276751D01*
X170473678Y-68386189D01*
X170291689Y-68461571D01*
X170175770Y-68484628D01*
X170098493Y-68500000D01*
X169901507Y-68500000D01*
X169824230Y-68484628D01*
X169708311Y-68461571D01*
X169526322Y-68386189D01*
X169362537Y-68276751D01*
X169223249Y-68137463D01*
X169113811Y-67973678D01*
X169038429Y-67791689D01*
X169000000Y-67598491D01*
X169000000Y-67401509D01*
X169038429Y-67208311D01*
X169113811Y-67026322D01*
X169223249Y-66862537D01*
X169362537Y-66723249D01*
X169526322Y-66613811D01*
X169708311Y-66538429D01*
X169824230Y-66515372D01*
X169901507Y-66500000D01*
X170098493Y-66500000D01*
X170175770Y-66515372D01*
X170175770Y-66515372D01*
G37*
G36*
X142675770Y-66515372D02*
X142791689Y-66538429D01*
X142973678Y-66613811D01*
X143137463Y-66723249D01*
X143276751Y-66862537D01*
X143386189Y-67026322D01*
X143461571Y-67208311D01*
X143500000Y-67401509D01*
X143500000Y-67598491D01*
X143461571Y-67791689D01*
X143386189Y-67973678D01*
X143276751Y-68137463D01*
X143137463Y-68276751D01*
X142973678Y-68386189D01*
X142791689Y-68461571D01*
X142675770Y-68484628D01*
X142598493Y-68500000D01*
X142401507Y-68500000D01*
X142324230Y-68484628D01*
X142208311Y-68461571D01*
X142026322Y-68386189D01*
X141862537Y-68276751D01*
X141723249Y-68137463D01*
X141613811Y-67973678D01*
X141538429Y-67791689D01*
X141500000Y-67598491D01*
X141500000Y-67401509D01*
X141538429Y-67208311D01*
X141613811Y-67026322D01*
X141723249Y-66862537D01*
X141862537Y-66723249D01*
X142026322Y-66613811D01*
X142208311Y-66538429D01*
X142324230Y-66515372D01*
X142401507Y-66500000D01*
X142598493Y-66500000D01*
X142675770Y-66515372D01*
X142675770Y-66515372D01*
G37*
G36*
X131280456Y-63027251D02*
X131598936Y-63159170D01*
X131885560Y-63350686D01*
X132129314Y-63594440D01*
X132320830Y-63881064D01*
X132452749Y-64199544D01*
X132520000Y-64537640D01*
X132520000Y-64882360D01*
X132452749Y-65220456D01*
X132320830Y-65538936D01*
X132129314Y-65825560D01*
X131885560Y-66069314D01*
X131598936Y-66260830D01*
X131280456Y-66392749D01*
X130942360Y-66460000D01*
X130597640Y-66460000D01*
X130259544Y-66392749D01*
X129941064Y-66260830D01*
X129654440Y-66069314D01*
X129410686Y-65825560D01*
X129219170Y-65538936D01*
X129087251Y-65220456D01*
X129020000Y-64882360D01*
X129020000Y-64537640D01*
X129087251Y-64199544D01*
X129219170Y-63881064D01*
X129410686Y-63594440D01*
X129654440Y-63350686D01*
X129941064Y-63159170D01*
X130259544Y-63027251D01*
X130597640Y-62960000D01*
X130942360Y-62960000D01*
X131280456Y-63027251D01*
X131280456Y-63027251D01*
G37*
G36*
X119240456Y-63027251D02*
X119558936Y-63159170D01*
X119845560Y-63350686D01*
X120089314Y-63594440D01*
X120280830Y-63881064D01*
X120412749Y-64199544D01*
X120480000Y-64537640D01*
X120480000Y-64882360D01*
X120412749Y-65220456D01*
X120280830Y-65538936D01*
X120089314Y-65825560D01*
X119845560Y-66069314D01*
X119558936Y-66260830D01*
X119240456Y-66392749D01*
X118902360Y-66460000D01*
X118557640Y-66460000D01*
X118219544Y-66392749D01*
X117901064Y-66260830D01*
X117614440Y-66069314D01*
X117370686Y-65825560D01*
X117179170Y-65538936D01*
X117047251Y-65220456D01*
X116980000Y-64882360D01*
X116980000Y-64537640D01*
X117047251Y-64199544D01*
X117179170Y-63881064D01*
X117370686Y-63594440D01*
X117614440Y-63350686D01*
X117901064Y-63159170D01*
X118219544Y-63027251D01*
X118557640Y-62960000D01*
X118902360Y-62960000D01*
X119240456Y-63027251D01*
X119240456Y-63027251D01*
G37*
G36*
X155166629Y-64037299D02*
X155281363Y-64072104D01*
X155326854Y-64085903D01*
X155400172Y-64125093D01*
X155474524Y-64164834D01*
X155603949Y-64271051D01*
X155710169Y-64400480D01*
X155789097Y-64548145D01*
X155837701Y-64708370D01*
X155850000Y-64833248D01*
X155850000Y-65166751D01*
X155837701Y-65291624D01*
X155837700Y-65291627D01*
X155837700Y-65291628D01*
X155789097Y-65451855D01*
X155760707Y-65504968D01*
X155710169Y-65599520D01*
X155603949Y-65728949D01*
X155474520Y-65835169D01*
X155326855Y-65914097D01*
X155166630Y-65962701D01*
X155000000Y-65979112D01*
X154833371Y-65962701D01*
X154673146Y-65914097D01*
X154525484Y-65835170D01*
X154396048Y-65728946D01*
X154289831Y-65599520D01*
X154210903Y-65451855D01*
X154162299Y-65291630D01*
X154150000Y-65166752D01*
X154150000Y-64833249D01*
X154162299Y-64708371D01*
X154197104Y-64593637D01*
X154210903Y-64548146D01*
X154256747Y-64462378D01*
X154289834Y-64400476D01*
X154396051Y-64271051D01*
X154525480Y-64164831D01*
X154673145Y-64085903D01*
X154833370Y-64037299D01*
X155000000Y-64020888D01*
X155166629Y-64037299D01*
X155166629Y-64037299D01*
G37*
G36*
X157666629Y-64037299D02*
X157781363Y-64072104D01*
X157826854Y-64085903D01*
X157900172Y-64125093D01*
X157974524Y-64164834D01*
X158103949Y-64271051D01*
X158210169Y-64400480D01*
X158289097Y-64548145D01*
X158337701Y-64708370D01*
X158350000Y-64833248D01*
X158350000Y-65166751D01*
X158337701Y-65291624D01*
X158337700Y-65291627D01*
X158337700Y-65291628D01*
X158289097Y-65451855D01*
X158260707Y-65504968D01*
X158210169Y-65599520D01*
X158103949Y-65728949D01*
X157974520Y-65835169D01*
X157826855Y-65914097D01*
X157666630Y-65962701D01*
X157500000Y-65979112D01*
X157333371Y-65962701D01*
X157173146Y-65914097D01*
X157025484Y-65835170D01*
X156896048Y-65728946D01*
X156789831Y-65599520D01*
X156710903Y-65451855D01*
X156662299Y-65291630D01*
X156650000Y-65166752D01*
X156650000Y-64833249D01*
X156662299Y-64708371D01*
X156697104Y-64593637D01*
X156710903Y-64548146D01*
X156756747Y-64462378D01*
X156789834Y-64400476D01*
X156896051Y-64271051D01*
X157025480Y-64164831D01*
X157173145Y-64085903D01*
X157333370Y-64037299D01*
X157500000Y-64020888D01*
X157666629Y-64037299D01*
X157666629Y-64037299D01*
G37*
G36*
X153219675Y-64028701D02*
X153249907Y-64037872D01*
X153277769Y-64052765D01*
X153302192Y-64072808D01*
X153322235Y-64097231D01*
X153337128Y-64125093D01*
X153346299Y-64155325D01*
X153350000Y-64192905D01*
X153350000Y-65807095D01*
X153346299Y-65844675D01*
X153337128Y-65874907D01*
X153322235Y-65902769D01*
X153302192Y-65927192D01*
X153277769Y-65947235D01*
X153249907Y-65962128D01*
X153219675Y-65971299D01*
X153182095Y-65975000D01*
X151817905Y-65975000D01*
X151780325Y-65971299D01*
X151750093Y-65962128D01*
X151722231Y-65947235D01*
X151697808Y-65927192D01*
X151677765Y-65902769D01*
X151662872Y-65874907D01*
X151653701Y-65844675D01*
X151650000Y-65807095D01*
X151650000Y-64192905D01*
X151653701Y-64155325D01*
X151662872Y-64125093D01*
X151677765Y-64097231D01*
X151697808Y-64072808D01*
X151722231Y-64052765D01*
X151750093Y-64037872D01*
X151780325Y-64028701D01*
X151817905Y-64025000D01*
X153182095Y-64025000D01*
X153219675Y-64028701D01*
X153219675Y-64028701D01*
G37*
G36*
X123747934Y-61182664D02*
X123902627Y-61246740D01*
X124041847Y-61339764D01*
X124160236Y-61458153D01*
X124253260Y-61597373D01*
X124317336Y-61752066D01*
X124350000Y-61916281D01*
X124350000Y-62083719D01*
X124317336Y-62247934D01*
X124253260Y-62402627D01*
X124160236Y-62541847D01*
X124041847Y-62660236D01*
X123902627Y-62753260D01*
X123747934Y-62817336D01*
X123583719Y-62850000D01*
X123416281Y-62850000D01*
X123252066Y-62817336D01*
X123097373Y-62753260D01*
X122958153Y-62660236D01*
X122839764Y-62541847D01*
X122746740Y-62402627D01*
X122682664Y-62247934D01*
X122650000Y-62083719D01*
X122650000Y-61916281D01*
X122682664Y-61752066D01*
X122746740Y-61597373D01*
X122839764Y-61458153D01*
X122958153Y-61339764D01*
X123097373Y-61246740D01*
X123252066Y-61182664D01*
X123416281Y-61150000D01*
X123583719Y-61150000D01*
X123747934Y-61182664D01*
X123747934Y-61182664D01*
G37*
G36*
X126247934Y-61182664D02*
X126402627Y-61246740D01*
X126541847Y-61339764D01*
X126660236Y-61458153D01*
X126753260Y-61597373D01*
X126817336Y-61752066D01*
X126850000Y-61916281D01*
X126850000Y-62083719D01*
X126817336Y-62247934D01*
X126753260Y-62402627D01*
X126660236Y-62541847D01*
X126541847Y-62660236D01*
X126402627Y-62753260D01*
X126247934Y-62817336D01*
X126083719Y-62850000D01*
X125916281Y-62850000D01*
X125752066Y-62817336D01*
X125597373Y-62753260D01*
X125458153Y-62660236D01*
X125339764Y-62541847D01*
X125246740Y-62402627D01*
X125182664Y-62247934D01*
X125150000Y-62083719D01*
X125150000Y-61916281D01*
X125182664Y-61752066D01*
X125246740Y-61597373D01*
X125339764Y-61458153D01*
X125458153Y-61339764D01*
X125597373Y-61246740D01*
X125752066Y-61182664D01*
X125916281Y-61150000D01*
X126083719Y-61150000D01*
X126247934Y-61182664D01*
X126247934Y-61182664D01*
G37*
G36*
X165650000Y-61500000D02*
X163150000Y-61500000D01*
X163150000Y-58500000D01*
X165650000Y-58500000D01*
X165650000Y-61500000D01*
X165650000Y-61500000D01*
G37*
G36*
X105650000Y-61500000D02*
X103150000Y-61500000D01*
X103150000Y-58500000D01*
X105650000Y-58500000D01*
X105650000Y-61500000D01*
X105650000Y-61500000D01*
G37*
G36*
X116850000Y-61500000D02*
X114350000Y-61500000D01*
X114350000Y-58500000D01*
X116850000Y-58500000D01*
X116850000Y-61500000D01*
X116850000Y-61500000D01*
G37*
G36*
X146850000Y-61500000D02*
X144350000Y-61500000D01*
X144350000Y-58500000D01*
X146850000Y-58500000D01*
X146850000Y-61500000D01*
X146850000Y-61500000D01*
G37*
G36*
X176850000Y-61500000D02*
X174350000Y-61500000D01*
X174350000Y-58500000D01*
X176850000Y-58500000D01*
X176850000Y-61500000D01*
X176850000Y-61500000D01*
G37*
G36*
X135650000Y-61500000D02*
X133150000Y-61500000D01*
X133150000Y-58500000D01*
X135650000Y-58500000D01*
X135650000Y-61500000D01*
X135650000Y-61500000D01*
G37*
G36*
X126850000Y-60850000D02*
X125150000Y-60850000D01*
X125150000Y-59150000D01*
X126850000Y-59150000D01*
X126850000Y-60850000D01*
X126850000Y-60850000D01*
G37*
G36*
X123747934Y-59182664D02*
X123902627Y-59246740D01*
X124041847Y-59339764D01*
X124160236Y-59458153D01*
X124253260Y-59597373D01*
X124317336Y-59752066D01*
X124350000Y-59916281D01*
X124350000Y-60083719D01*
X124317336Y-60247934D01*
X124253260Y-60402627D01*
X124160236Y-60541847D01*
X124041847Y-60660236D01*
X123902627Y-60753260D01*
X123747934Y-60817336D01*
X123583719Y-60850000D01*
X123416281Y-60850000D01*
X123252066Y-60817336D01*
X123097373Y-60753260D01*
X122958153Y-60660236D01*
X122839764Y-60541847D01*
X122746740Y-60402627D01*
X122682664Y-60247934D01*
X122650000Y-60083719D01*
X122650000Y-59916281D01*
X122682664Y-59752066D01*
X122746740Y-59597373D01*
X122839764Y-59458153D01*
X122958153Y-59339764D01*
X123097373Y-59246740D01*
X123252066Y-59182664D01*
X123416281Y-59150000D01*
X123583719Y-59150000D01*
X123747934Y-59182664D01*
X123747934Y-59182664D01*
G37*
G36*
X123430522Y-55304039D02*
X123464053Y-55314211D01*
X123494960Y-55330731D01*
X123522043Y-55352957D01*
X123544269Y-55380040D01*
X123560789Y-55410947D01*
X123570961Y-55444478D01*
X123575000Y-55485487D01*
X123575000Y-56514513D01*
X123570961Y-56555522D01*
X123560789Y-56589053D01*
X123544269Y-56619960D01*
X123522043Y-56647043D01*
X123494960Y-56669269D01*
X123464053Y-56685789D01*
X123430522Y-56695961D01*
X123389513Y-56700000D01*
X122610487Y-56700000D01*
X122569478Y-56695961D01*
X122535947Y-56685789D01*
X122505040Y-56669269D01*
X122477957Y-56647043D01*
X122455731Y-56619960D01*
X122439211Y-56589053D01*
X122429039Y-56555522D01*
X122425000Y-56514513D01*
X122425000Y-55485487D01*
X122429039Y-55444478D01*
X122439211Y-55410947D01*
X122455731Y-55380040D01*
X122477957Y-55352957D01*
X122505040Y-55330731D01*
X122535947Y-55314211D01*
X122569478Y-55304039D01*
X122610487Y-55300000D01*
X123389513Y-55300000D01*
X123430522Y-55304039D01*
X123430522Y-55304039D01*
G37*
G36*
X125480522Y-55304039D02*
X125514053Y-55314211D01*
X125544960Y-55330731D01*
X125572043Y-55352957D01*
X125594269Y-55380040D01*
X125610789Y-55410947D01*
X125620961Y-55444478D01*
X125625000Y-55485487D01*
X125625000Y-56514513D01*
X125620961Y-56555522D01*
X125610789Y-56589053D01*
X125594269Y-56619960D01*
X125572043Y-56647043D01*
X125544960Y-56669269D01*
X125514053Y-56685789D01*
X125480522Y-56695961D01*
X125439513Y-56700000D01*
X124660487Y-56700000D01*
X124619478Y-56695961D01*
X124585947Y-56685789D01*
X124555040Y-56669269D01*
X124527957Y-56647043D01*
X124505731Y-56619960D01*
X124489211Y-56589053D01*
X124479039Y-56555522D01*
X124475000Y-56514513D01*
X124475000Y-55485487D01*
X124479039Y-55444478D01*
X124489211Y-55410947D01*
X124505731Y-55380040D01*
X124527957Y-55352957D01*
X124555040Y-55330731D01*
X124585947Y-55314211D01*
X124619478Y-55304039D01*
X124660487Y-55300000D01*
X125439513Y-55300000D01*
X125480522Y-55304039D01*
X125480522Y-55304039D01*
G37*
G36*
X150555522Y-53454039D02*
X150589053Y-53464211D01*
X150619960Y-53480731D01*
X150647043Y-53502957D01*
X150669269Y-53530040D01*
X150685789Y-53560947D01*
X150695961Y-53594478D01*
X150700000Y-53635487D01*
X150700000Y-54414513D01*
X150695961Y-54455522D01*
X150685789Y-54489053D01*
X150669269Y-54519960D01*
X150647043Y-54547043D01*
X150619960Y-54569269D01*
X150589053Y-54585789D01*
X150555522Y-54595961D01*
X150514513Y-54600000D01*
X149485487Y-54600000D01*
X149444478Y-54595961D01*
X149410947Y-54585789D01*
X149380040Y-54569269D01*
X149352957Y-54547043D01*
X149330731Y-54519960D01*
X149314211Y-54489053D01*
X149304039Y-54455522D01*
X149300000Y-54414513D01*
X149300000Y-53635487D01*
X149304039Y-53594478D01*
X149314211Y-53560947D01*
X149330731Y-53530040D01*
X149352957Y-53502957D01*
X149380040Y-53480731D01*
X149410947Y-53464211D01*
X149444478Y-53454039D01*
X149485487Y-53450000D01*
X150514513Y-53450000D01*
X150555522Y-53454039D01*
X150555522Y-53454039D01*
G37*
G36*
X153600000Y-54125000D02*
X152600000Y-54125000D01*
X152600000Y-47875000D01*
X153600000Y-47875000D01*
X153600000Y-54125000D01*
X153600000Y-54125000D01*
G37*
G36*
X159400000Y-54125000D02*
X158400000Y-54125000D01*
X158400000Y-47875000D01*
X159400000Y-47875000D01*
X159400000Y-54125000D01*
X159400000Y-54125000D01*
G37*
G36*
X137675770Y-52015372D02*
X137791689Y-52038429D01*
X137973678Y-52113811D01*
X138137463Y-52223249D01*
X138276751Y-52362537D01*
X138386189Y-52526322D01*
X138461571Y-52708311D01*
X138500000Y-52901509D01*
X138500000Y-53098491D01*
X138461571Y-53291689D01*
X138386189Y-53473678D01*
X138276751Y-53637463D01*
X138137463Y-53776751D01*
X137973678Y-53886189D01*
X137791689Y-53961571D01*
X137675770Y-53984628D01*
X137598493Y-54000000D01*
X137401507Y-54000000D01*
X137324230Y-53984628D01*
X137208311Y-53961571D01*
X137026322Y-53886189D01*
X136862537Y-53776751D01*
X136723249Y-53637463D01*
X136613811Y-53473678D01*
X136538429Y-53291689D01*
X136500000Y-53098491D01*
X136500000Y-52901509D01*
X136538429Y-52708311D01*
X136613811Y-52526322D01*
X136723249Y-52362537D01*
X136862537Y-52223249D01*
X137026322Y-52113811D01*
X137208311Y-52038429D01*
X137324230Y-52015372D01*
X137401507Y-52000000D01*
X137598493Y-52000000D01*
X137675770Y-52015372D01*
X137675770Y-52015372D01*
G37*
G36*
X142675770Y-52015372D02*
X142791689Y-52038429D01*
X142973678Y-52113811D01*
X143137463Y-52223249D01*
X143276751Y-52362537D01*
X143386189Y-52526322D01*
X143461571Y-52708311D01*
X143500000Y-52901509D01*
X143500000Y-53098491D01*
X143461571Y-53291689D01*
X143386189Y-53473678D01*
X143276751Y-53637463D01*
X143137463Y-53776751D01*
X142973678Y-53886189D01*
X142791689Y-53961571D01*
X142675770Y-53984628D01*
X142598493Y-54000000D01*
X142401507Y-54000000D01*
X142324230Y-53984628D01*
X142208311Y-53961571D01*
X142026322Y-53886189D01*
X141862537Y-53776751D01*
X141723249Y-53637463D01*
X141613811Y-53473678D01*
X141538429Y-53291689D01*
X141500000Y-53098491D01*
X141500000Y-52901509D01*
X141538429Y-52708311D01*
X141613811Y-52526322D01*
X141723249Y-52362537D01*
X141862537Y-52223249D01*
X142026322Y-52113811D01*
X142208311Y-52038429D01*
X142324230Y-52015372D01*
X142401507Y-52000000D01*
X142598493Y-52000000D01*
X142675770Y-52015372D01*
X142675770Y-52015372D01*
G37*
G36*
X172675770Y-52015372D02*
X172791689Y-52038429D01*
X172973678Y-52113811D01*
X173137463Y-52223249D01*
X173276751Y-52362537D01*
X173386189Y-52526322D01*
X173461571Y-52708311D01*
X173500000Y-52901509D01*
X173500000Y-53098491D01*
X173461571Y-53291689D01*
X173386189Y-53473678D01*
X173276751Y-53637463D01*
X173137463Y-53776751D01*
X172973678Y-53886189D01*
X172791689Y-53961571D01*
X172675770Y-53984628D01*
X172598493Y-54000000D01*
X172401507Y-54000000D01*
X172324230Y-53984628D01*
X172208311Y-53961571D01*
X172026322Y-53886189D01*
X171862537Y-53776751D01*
X171723249Y-53637463D01*
X171613811Y-53473678D01*
X171538429Y-53291689D01*
X171500000Y-53098491D01*
X171500000Y-52901509D01*
X171538429Y-52708311D01*
X171613811Y-52526322D01*
X171723249Y-52362537D01*
X171862537Y-52223249D01*
X172026322Y-52113811D01*
X172208311Y-52038429D01*
X172324230Y-52015372D01*
X172401507Y-52000000D01*
X172598493Y-52000000D01*
X172675770Y-52015372D01*
X172675770Y-52015372D01*
G37*
G36*
X167675770Y-52015372D02*
X167791689Y-52038429D01*
X167973678Y-52113811D01*
X168137463Y-52223249D01*
X168276751Y-52362537D01*
X168386189Y-52526322D01*
X168461571Y-52708311D01*
X168500000Y-52901509D01*
X168500000Y-53098491D01*
X168461571Y-53291689D01*
X168386189Y-53473678D01*
X168276751Y-53637463D01*
X168137463Y-53776751D01*
X167973678Y-53886189D01*
X167791689Y-53961571D01*
X167675770Y-53984628D01*
X167598493Y-54000000D01*
X167401507Y-54000000D01*
X167324230Y-53984628D01*
X167208311Y-53961571D01*
X167026322Y-53886189D01*
X166862537Y-53776751D01*
X166723249Y-53637463D01*
X166613811Y-53473678D01*
X166538429Y-53291689D01*
X166500000Y-53098491D01*
X166500000Y-52901509D01*
X166538429Y-52708311D01*
X166613811Y-52526322D01*
X166723249Y-52362537D01*
X166862537Y-52223249D01*
X167026322Y-52113811D01*
X167208311Y-52038429D01*
X167324230Y-52015372D01*
X167401507Y-52000000D01*
X167598493Y-52000000D01*
X167675770Y-52015372D01*
X167675770Y-52015372D01*
G37*
G36*
X112675770Y-52015372D02*
X112791689Y-52038429D01*
X112973678Y-52113811D01*
X113137463Y-52223249D01*
X113276751Y-52362537D01*
X113386189Y-52526322D01*
X113461571Y-52708311D01*
X113500000Y-52901509D01*
X113500000Y-53098491D01*
X113461571Y-53291689D01*
X113386189Y-53473678D01*
X113276751Y-53637463D01*
X113137463Y-53776751D01*
X112973678Y-53886189D01*
X112791689Y-53961571D01*
X112675770Y-53984628D01*
X112598493Y-54000000D01*
X112401507Y-54000000D01*
X112324230Y-53984628D01*
X112208311Y-53961571D01*
X112026322Y-53886189D01*
X111862537Y-53776751D01*
X111723249Y-53637463D01*
X111613811Y-53473678D01*
X111538429Y-53291689D01*
X111500000Y-53098491D01*
X111500000Y-52901509D01*
X111538429Y-52708311D01*
X111613811Y-52526322D01*
X111723249Y-52362537D01*
X111862537Y-52223249D01*
X112026322Y-52113811D01*
X112208311Y-52038429D01*
X112324230Y-52015372D01*
X112401507Y-52000000D01*
X112598493Y-52000000D01*
X112675770Y-52015372D01*
X112675770Y-52015372D01*
G37*
G36*
X107675770Y-52015372D02*
X107791689Y-52038429D01*
X107973678Y-52113811D01*
X108137463Y-52223249D01*
X108276751Y-52362537D01*
X108386189Y-52526322D01*
X108461571Y-52708311D01*
X108500000Y-52901509D01*
X108500000Y-53098491D01*
X108461571Y-53291689D01*
X108386189Y-53473678D01*
X108276751Y-53637463D01*
X108137463Y-53776751D01*
X107973678Y-53886189D01*
X107791689Y-53961571D01*
X107675770Y-53984628D01*
X107598493Y-54000000D01*
X107401507Y-54000000D01*
X107324230Y-53984628D01*
X107208311Y-53961571D01*
X107026322Y-53886189D01*
X106862537Y-53776751D01*
X106723249Y-53637463D01*
X106613811Y-53473678D01*
X106538429Y-53291689D01*
X106500000Y-53098491D01*
X106500000Y-52901509D01*
X106538429Y-52708311D01*
X106613811Y-52526322D01*
X106723249Y-52362537D01*
X106862537Y-52223249D01*
X107026322Y-52113811D01*
X107208311Y-52038429D01*
X107324230Y-52015372D01*
X107401507Y-52000000D01*
X107598493Y-52000000D01*
X107675770Y-52015372D01*
X107675770Y-52015372D01*
G37*
G36*
X125225000Y-53780000D02*
X124575000Y-53780000D01*
X124575000Y-52220000D01*
X125225000Y-52220000D01*
X125225000Y-53780000D01*
X125225000Y-53780000D01*
G37*
G36*
X124275000Y-53780000D02*
X123625000Y-53780000D01*
X123625000Y-52220000D01*
X124275000Y-52220000D01*
X124275000Y-53780000D01*
X124275000Y-53780000D01*
G37*
G36*
X123325000Y-53780000D02*
X122675000Y-53780000D01*
X122675000Y-52220000D01*
X123325000Y-52220000D01*
X123325000Y-53780000D01*
X123325000Y-53780000D01*
G37*
G36*
X100079249Y-45442188D02*
X100473693Y-45605572D01*
X100752607Y-45721102D01*
X101354531Y-46123295D01*
X101358616Y-46126024D01*
X101873976Y-46641384D01*
X101873978Y-46641387D01*
X102278898Y-47247393D01*
X102347996Y-47414211D01*
X102557812Y-47920751D01*
X102700000Y-48635580D01*
X102700000Y-49364420D01*
X102557812Y-50079249D01*
X102425461Y-50398773D01*
X102278898Y-50752607D01*
X102060141Y-51080000D01*
X101873976Y-51358616D01*
X101358616Y-51873976D01*
X101358613Y-51873978D01*
X100752607Y-52278898D01*
X100520593Y-52375001D01*
X100079249Y-52557812D01*
X99364420Y-52700000D01*
X98635580Y-52700000D01*
X97920751Y-52557812D01*
X97479407Y-52375001D01*
X97247393Y-52278898D01*
X96641387Y-51873978D01*
X96641384Y-51873976D01*
X96126024Y-51358616D01*
X95939859Y-51080000D01*
X95721102Y-50752607D01*
X95574539Y-50398773D01*
X95442188Y-50079249D01*
X95300000Y-49364420D01*
X95300000Y-48635580D01*
X95442188Y-47920751D01*
X95652004Y-47414211D01*
X95721102Y-47247393D01*
X96126022Y-46641387D01*
X96126024Y-46641384D01*
X96641384Y-46126024D01*
X96645469Y-46123295D01*
X97247393Y-45721102D01*
X97526307Y-45605572D01*
X97920751Y-45442188D01*
X98635580Y-45300000D01*
X99364420Y-45300000D01*
X100079249Y-45442188D01*
X100079249Y-45442188D01*
G37*
G36*
X182079249Y-45442188D02*
X182473693Y-45605572D01*
X182752607Y-45721102D01*
X183354531Y-46123295D01*
X183358616Y-46126024D01*
X183873976Y-46641384D01*
X183873978Y-46641387D01*
X184278898Y-47247393D01*
X184347996Y-47414211D01*
X184557812Y-47920751D01*
X184700000Y-48635580D01*
X184700000Y-49364420D01*
X184557812Y-50079249D01*
X184425461Y-50398773D01*
X184278898Y-50752607D01*
X184060141Y-51080000D01*
X183873976Y-51358616D01*
X183358616Y-51873976D01*
X183358613Y-51873978D01*
X182752607Y-52278898D01*
X182520593Y-52375001D01*
X182079249Y-52557812D01*
X181364420Y-52700000D01*
X180635580Y-52700000D01*
X179920751Y-52557812D01*
X179479407Y-52375001D01*
X179247393Y-52278898D01*
X178641387Y-51873978D01*
X178641384Y-51873976D01*
X178126024Y-51358616D01*
X177939859Y-51080000D01*
X177721102Y-50752607D01*
X177574539Y-50398773D01*
X177442188Y-50079249D01*
X177300000Y-49364420D01*
X177300000Y-48635580D01*
X177442188Y-47920751D01*
X177652004Y-47414211D01*
X177721102Y-47247393D01*
X178126022Y-46641387D01*
X178126024Y-46641384D01*
X178641384Y-46126024D01*
X178645469Y-46123295D01*
X179247393Y-45721102D01*
X179526307Y-45605572D01*
X179920751Y-45442188D01*
X180635580Y-45300000D01*
X181364420Y-45300000D01*
X182079249Y-45442188D01*
X182079249Y-45442188D01*
G37*
G36*
X120555522Y-51479039D02*
X120589053Y-51489211D01*
X120619960Y-51505731D01*
X120647043Y-51527957D01*
X120669269Y-51555040D01*
X120685789Y-51585947D01*
X120695961Y-51619478D01*
X120700000Y-51660487D01*
X120700000Y-52439513D01*
X120695961Y-52480522D01*
X120685789Y-52514053D01*
X120669269Y-52544960D01*
X120647043Y-52572043D01*
X120619960Y-52594269D01*
X120589053Y-52610789D01*
X120555522Y-52620961D01*
X120514513Y-52625000D01*
X119485487Y-52625000D01*
X119444478Y-52620961D01*
X119410947Y-52610789D01*
X119380040Y-52594269D01*
X119352957Y-52572043D01*
X119330731Y-52544960D01*
X119314211Y-52514053D01*
X119304039Y-52480522D01*
X119300000Y-52439513D01*
X119300000Y-51660487D01*
X119304039Y-51619478D01*
X119314211Y-51585947D01*
X119330731Y-51555040D01*
X119352957Y-51527957D01*
X119380040Y-51505731D01*
X119410947Y-51489211D01*
X119444478Y-51479039D01*
X119485487Y-51475000D01*
X120514513Y-51475000D01*
X120555522Y-51479039D01*
X120555522Y-51479039D01*
G37*
G36*
X162555522Y-51454039D02*
X162589053Y-51464211D01*
X162619960Y-51480731D01*
X162647043Y-51502957D01*
X162669269Y-51530040D01*
X162685789Y-51560947D01*
X162695961Y-51594478D01*
X162700000Y-51635487D01*
X162700000Y-52414513D01*
X162695961Y-52455522D01*
X162685789Y-52489053D01*
X162669269Y-52519960D01*
X162647043Y-52547043D01*
X162619960Y-52569269D01*
X162589053Y-52585789D01*
X162555522Y-52595961D01*
X162514513Y-52600000D01*
X161485487Y-52600000D01*
X161444478Y-52595961D01*
X161410947Y-52585789D01*
X161380040Y-52569269D01*
X161352957Y-52547043D01*
X161330731Y-52519960D01*
X161314211Y-52489053D01*
X161304039Y-52455522D01*
X161300000Y-52414513D01*
X161300000Y-51635487D01*
X161304039Y-51594478D01*
X161314211Y-51560947D01*
X161330731Y-51530040D01*
X161352957Y-51502957D01*
X161380040Y-51480731D01*
X161410947Y-51464211D01*
X161444478Y-51454039D01*
X161485487Y-51450000D01*
X162514513Y-51450000D01*
X162555522Y-51454039D01*
X162555522Y-51454039D01*
G37*
G36*
X128555522Y-51454039D02*
X128589053Y-51464211D01*
X128619960Y-51480731D01*
X128647043Y-51502957D01*
X128669269Y-51530040D01*
X128685789Y-51560947D01*
X128695961Y-51594478D01*
X128700000Y-51635487D01*
X128700000Y-52414513D01*
X128695961Y-52455522D01*
X128685789Y-52489053D01*
X128669269Y-52519960D01*
X128647043Y-52547043D01*
X128619960Y-52569269D01*
X128589053Y-52585789D01*
X128555522Y-52595961D01*
X128514513Y-52600000D01*
X127485487Y-52600000D01*
X127444478Y-52595961D01*
X127410947Y-52585789D01*
X127380040Y-52569269D01*
X127352957Y-52547043D01*
X127330731Y-52519960D01*
X127314211Y-52489053D01*
X127304039Y-52455522D01*
X127300000Y-52414513D01*
X127300000Y-51635487D01*
X127304039Y-51594478D01*
X127314211Y-51560947D01*
X127330731Y-51530040D01*
X127352957Y-51502957D01*
X127380040Y-51480731D01*
X127410947Y-51464211D01*
X127444478Y-51454039D01*
X127485487Y-51450000D01*
X128514513Y-51450000D01*
X128555522Y-51454039D01*
X128555522Y-51454039D01*
G37*
G36*
X150555522Y-51404039D02*
X150589053Y-51414211D01*
X150619960Y-51430731D01*
X150647043Y-51452957D01*
X150669269Y-51480040D01*
X150685789Y-51510947D01*
X150695961Y-51544478D01*
X150700000Y-51585487D01*
X150700000Y-52364513D01*
X150695961Y-52405522D01*
X150685789Y-52439053D01*
X150669269Y-52469960D01*
X150647043Y-52497043D01*
X150619960Y-52519269D01*
X150589053Y-52535789D01*
X150555522Y-52545961D01*
X150514513Y-52550000D01*
X149485487Y-52550000D01*
X149444478Y-52545961D01*
X149410947Y-52535789D01*
X149380040Y-52519269D01*
X149352957Y-52497043D01*
X149330731Y-52469960D01*
X149314211Y-52439053D01*
X149304039Y-52405522D01*
X149300000Y-52364513D01*
X149300000Y-51585487D01*
X149304039Y-51544478D01*
X149314211Y-51510947D01*
X149330731Y-51480040D01*
X149352957Y-51452957D01*
X149380040Y-51430731D01*
X149410947Y-51414211D01*
X149444478Y-51404039D01*
X149485487Y-51400000D01*
X150514513Y-51400000D01*
X150555522Y-51404039D01*
X150555522Y-51404039D01*
G37*
G36*
X123325000Y-51080000D02*
X122675000Y-51080000D01*
X122675000Y-49520000D01*
X123325000Y-49520000D01*
X123325000Y-51080000D01*
X123325000Y-51080000D01*
G37*
G36*
X125225000Y-51080000D02*
X124575000Y-51080000D01*
X124575000Y-49520000D01*
X125225000Y-49520000D01*
X125225000Y-51080000D01*
X125225000Y-51080000D01*
G37*
G36*
X150555522Y-49454039D02*
X150589053Y-49464211D01*
X150619960Y-49480731D01*
X150647043Y-49502957D01*
X150669269Y-49530040D01*
X150685789Y-49560947D01*
X150695961Y-49594478D01*
X150700000Y-49635487D01*
X150700000Y-50414513D01*
X150695961Y-50455522D01*
X150685789Y-50489053D01*
X150669269Y-50519960D01*
X150647043Y-50547043D01*
X150619960Y-50569269D01*
X150589053Y-50585789D01*
X150555522Y-50595961D01*
X150514513Y-50600000D01*
X149485487Y-50600000D01*
X149444478Y-50595961D01*
X149410947Y-50585789D01*
X149380040Y-50569269D01*
X149352957Y-50547043D01*
X149330731Y-50519960D01*
X149314211Y-50489053D01*
X149304039Y-50455522D01*
X149300000Y-50414513D01*
X149300000Y-49635487D01*
X149304039Y-49594478D01*
X149314211Y-49560947D01*
X149330731Y-49530040D01*
X149352957Y-49502957D01*
X149380040Y-49480731D01*
X149410947Y-49464211D01*
X149444478Y-49454039D01*
X149485487Y-49450000D01*
X150514513Y-49450000D01*
X150555522Y-49454039D01*
X150555522Y-49454039D01*
G37*
G36*
X120555522Y-49429039D02*
X120589053Y-49439211D01*
X120619960Y-49455731D01*
X120647043Y-49477957D01*
X120669269Y-49505040D01*
X120685789Y-49535947D01*
X120695961Y-49569478D01*
X120700000Y-49610487D01*
X120700000Y-50389513D01*
X120695961Y-50430522D01*
X120685789Y-50464053D01*
X120669269Y-50494960D01*
X120647043Y-50522043D01*
X120619960Y-50544269D01*
X120589053Y-50560789D01*
X120555522Y-50570961D01*
X120514513Y-50575000D01*
X119485487Y-50575000D01*
X119444478Y-50570961D01*
X119410947Y-50560789D01*
X119380040Y-50544269D01*
X119352957Y-50522043D01*
X119330731Y-50494960D01*
X119314211Y-50464053D01*
X119304039Y-50430522D01*
X119300000Y-50389513D01*
X119300000Y-49610487D01*
X119304039Y-49569478D01*
X119314211Y-49535947D01*
X119330731Y-49505040D01*
X119352957Y-49477957D01*
X119380040Y-49455731D01*
X119410947Y-49439211D01*
X119444478Y-49429039D01*
X119485487Y-49425000D01*
X120514513Y-49425000D01*
X120555522Y-49429039D01*
X120555522Y-49429039D01*
G37*
G36*
X162555522Y-49404039D02*
X162589053Y-49414211D01*
X162619960Y-49430731D01*
X162647043Y-49452957D01*
X162669269Y-49480040D01*
X162685789Y-49510947D01*
X162695961Y-49544478D01*
X162700000Y-49585487D01*
X162700000Y-50364513D01*
X162695961Y-50405522D01*
X162685789Y-50439053D01*
X162669269Y-50469960D01*
X162647043Y-50497043D01*
X162619960Y-50519269D01*
X162589053Y-50535789D01*
X162555522Y-50545961D01*
X162514513Y-50550000D01*
X161485487Y-50550000D01*
X161444478Y-50545961D01*
X161410947Y-50535789D01*
X161380040Y-50519269D01*
X161352957Y-50497043D01*
X161330731Y-50469960D01*
X161314211Y-50439053D01*
X161304039Y-50405522D01*
X161300000Y-50364513D01*
X161300000Y-49585487D01*
X161304039Y-49544478D01*
X161314211Y-49510947D01*
X161330731Y-49480040D01*
X161352957Y-49452957D01*
X161380040Y-49430731D01*
X161410947Y-49414211D01*
X161444478Y-49404039D01*
X161485487Y-49400000D01*
X162514513Y-49400000D01*
X162555522Y-49404039D01*
X162555522Y-49404039D01*
G37*
G36*
X128555522Y-49404039D02*
X128589053Y-49414211D01*
X128619960Y-49430731D01*
X128647043Y-49452957D01*
X128669269Y-49480040D01*
X128685789Y-49510947D01*
X128695961Y-49544478D01*
X128700000Y-49585487D01*
X128700000Y-50364513D01*
X128695961Y-50405522D01*
X128685789Y-50439053D01*
X128669269Y-50469960D01*
X128647043Y-50497043D01*
X128619960Y-50519269D01*
X128589053Y-50535789D01*
X128555522Y-50545961D01*
X128514513Y-50550000D01*
X127485487Y-50550000D01*
X127444478Y-50545961D01*
X127410947Y-50535789D01*
X127380040Y-50519269D01*
X127352957Y-50497043D01*
X127330731Y-50469960D01*
X127314211Y-50439053D01*
X127304039Y-50405522D01*
X127300000Y-50364513D01*
X127300000Y-49585487D01*
X127304039Y-49544478D01*
X127314211Y-49510947D01*
X127330731Y-49480040D01*
X127352957Y-49452957D01*
X127380040Y-49430731D01*
X127410947Y-49414211D01*
X127444478Y-49404039D01*
X127485487Y-49400000D01*
X128514513Y-49400000D01*
X128555522Y-49404039D01*
X128555522Y-49404039D01*
G37*
G36*
X150555522Y-47404039D02*
X150589053Y-47414211D01*
X150619960Y-47430731D01*
X150647043Y-47452957D01*
X150669269Y-47480040D01*
X150685789Y-47510947D01*
X150695961Y-47544478D01*
X150700000Y-47585487D01*
X150700000Y-48364513D01*
X150695961Y-48405522D01*
X150685789Y-48439053D01*
X150669269Y-48469960D01*
X150647043Y-48497043D01*
X150619960Y-48519269D01*
X150589053Y-48535789D01*
X150555522Y-48545961D01*
X150514513Y-48550000D01*
X149485487Y-48550000D01*
X149444478Y-48545961D01*
X149410947Y-48535789D01*
X149380040Y-48519269D01*
X149352957Y-48497043D01*
X149330731Y-48469960D01*
X149314211Y-48439053D01*
X149304039Y-48405522D01*
X149300000Y-48364513D01*
X149300000Y-47585487D01*
X149304039Y-47544478D01*
X149314211Y-47510947D01*
X149330731Y-47480040D01*
X149352957Y-47452957D01*
X149380040Y-47430731D01*
X149410947Y-47414211D01*
X149444478Y-47404039D01*
X149485487Y-47400000D01*
X150514513Y-47400000D01*
X150555522Y-47404039D01*
X150555522Y-47404039D01*
G37*
G36*
X166633195Y-46257522D02*
X166682267Y-46267283D01*
X166820942Y-46324724D01*
X166945750Y-46408118D01*
X167051882Y-46514250D01*
X167135276Y-46639058D01*
X167192717Y-46777734D01*
X167222000Y-46924948D01*
X167222000Y-47075052D01*
X167192717Y-47222266D01*
X167135276Y-47360942D01*
X167051882Y-47485750D01*
X166945750Y-47591882D01*
X166945747Y-47591884D01*
X166820942Y-47675276D01*
X166682267Y-47732717D01*
X166633195Y-47742478D01*
X166535052Y-47762000D01*
X166384948Y-47762000D01*
X166286805Y-47742478D01*
X166237733Y-47732717D01*
X166099058Y-47675276D01*
X165974253Y-47591884D01*
X165974250Y-47591882D01*
X165868118Y-47485750D01*
X165784724Y-47360942D01*
X165727283Y-47222266D01*
X165698000Y-47075052D01*
X165698000Y-46924948D01*
X165727283Y-46777734D01*
X165784724Y-46639058D01*
X165868118Y-46514250D01*
X165974250Y-46408118D01*
X166099058Y-46324724D01*
X166237733Y-46267283D01*
X166286805Y-46257522D01*
X166384948Y-46238000D01*
X166535052Y-46238000D01*
X166633195Y-46257522D01*
X166633195Y-46257522D01*
G37*
G36*
X169173195Y-46257522D02*
X169222267Y-46267283D01*
X169360942Y-46324724D01*
X169485750Y-46408118D01*
X169591882Y-46514250D01*
X169675276Y-46639058D01*
X169732717Y-46777734D01*
X169762000Y-46924948D01*
X169762000Y-47075052D01*
X169732717Y-47222266D01*
X169675276Y-47360942D01*
X169591882Y-47485750D01*
X169485750Y-47591882D01*
X169485747Y-47591884D01*
X169360942Y-47675276D01*
X169222267Y-47732717D01*
X169173195Y-47742478D01*
X169075052Y-47762000D01*
X168924948Y-47762000D01*
X168826805Y-47742478D01*
X168777733Y-47732717D01*
X168639058Y-47675276D01*
X168514253Y-47591884D01*
X168514250Y-47591882D01*
X168408118Y-47485750D01*
X168324724Y-47360942D01*
X168267283Y-47222266D01*
X168238000Y-47075052D01*
X168238000Y-46924948D01*
X168267283Y-46777734D01*
X168324724Y-46639058D01*
X168408118Y-46514250D01*
X168514250Y-46408118D01*
X168639058Y-46324724D01*
X168777733Y-46267283D01*
X168826805Y-46257522D01*
X168924948Y-46238000D01*
X169075052Y-46238000D01*
X169173195Y-46257522D01*
X169173195Y-46257522D01*
G37*
G36*
X171713195Y-46257522D02*
X171762267Y-46267283D01*
X171900942Y-46324724D01*
X172025750Y-46408118D01*
X172131882Y-46514250D01*
X172215276Y-46639058D01*
X172272717Y-46777734D01*
X172302000Y-46924948D01*
X172302000Y-47075052D01*
X172272717Y-47222266D01*
X172215276Y-47360942D01*
X172131882Y-47485750D01*
X172025750Y-47591882D01*
X172025747Y-47591884D01*
X171900942Y-47675276D01*
X171762267Y-47732717D01*
X171713195Y-47742478D01*
X171615052Y-47762000D01*
X171464948Y-47762000D01*
X171366805Y-47742478D01*
X171317733Y-47732717D01*
X171179058Y-47675276D01*
X171054253Y-47591884D01*
X171054250Y-47591882D01*
X170948118Y-47485750D01*
X170864724Y-47360942D01*
X170807283Y-47222266D01*
X170778000Y-47075052D01*
X170778000Y-46924948D01*
X170807283Y-46777734D01*
X170864724Y-46639058D01*
X170948118Y-46514250D01*
X171054250Y-46408118D01*
X171179058Y-46324724D01*
X171317733Y-46267283D01*
X171366805Y-46257522D01*
X171464948Y-46238000D01*
X171615052Y-46238000D01*
X171713195Y-46257522D01*
X171713195Y-46257522D01*
G37*
M02*
