G04 #@! TF.GenerationSoftware,KiCad,Pcbnew,5.0.2-bee76a0~70~ubuntu16.04.1*
G04 #@! TF.CreationDate,2019-03-20T11:46:08+01:00*
G04 #@! TF.ProjectId,ring,72696e67-2e6b-4696-9361-645f70636258,rev?*
G04 #@! TF.SameCoordinates,Original*
G04 #@! TF.FileFunction,Copper,L2,Bot*
G04 #@! TF.FilePolarity,Positive*
%FSLAX46Y46*%
G04 Gerber Fmt 4.6, Leading zero omitted, Abs format (unit mm)*
G04 Created by KiCad (PCBNEW 5.0.2-bee76a0~70~ubuntu16.04.1) date Wed 20 Mar 2019 11:46:08 AM CET*
%MOMM*%
%LPD*%
G01*
G04 APERTURE LIST*
%ADD10C,0.150000*%
%ADD11C,1.200000*%
G04 #@! TA.AperFunction,ViaPad*
%ADD12C,1.000000*%
G04 #@! TD*
G04 APERTURE END LIST*
D10*
G36*
X55213122Y-89457915D02*
X57169417Y-89873738D01*
X56753594Y-91830033D01*
X54797299Y-91414210D01*
X55213122Y-89457915D01*
G37*
X55213122Y-89457915D02*
X57169417Y-89873738D01*
X56753594Y-91830033D01*
X54797299Y-91414210D01*
X55213122Y-89457915D01*
G36*
X60666184Y-107338320D02*
X63600627Y-106714585D01*
X64016450Y-108670880D01*
X61082008Y-109294615D01*
X60666184Y-107338320D01*
G37*
X60666184Y-107338320D02*
X63600627Y-106714585D01*
X64016450Y-108670880D01*
X61082008Y-109294615D01*
X60666184Y-107338320D01*
G36*
X57523830Y-106983908D02*
X59480125Y-106568084D01*
X60666184Y-107338320D01*
X61082008Y-109294615D01*
X60311772Y-110480675D01*
X58355477Y-110896498D01*
X57169417Y-110126262D01*
X56753594Y-108169967D01*
X57523830Y-106983908D01*
G37*
X57523830Y-106983908D02*
X59480125Y-106568084D01*
X60666184Y-107338320D01*
X61082008Y-109294615D01*
X60311772Y-110480675D01*
X58355477Y-110896498D01*
X57169417Y-110126262D01*
X56753594Y-108169967D01*
X57523830Y-106983908D01*
G36*
X58355477Y-89103502D02*
X60311772Y-89519325D01*
X61082008Y-90705385D01*
X60666184Y-92661680D01*
X59480125Y-93431916D01*
X57523830Y-93016092D01*
X56753594Y-91830033D01*
X57169417Y-89873738D01*
X58355477Y-89103502D01*
G37*
X58355477Y-89103502D02*
X60311772Y-89519325D01*
X61082008Y-90705385D01*
X60666184Y-92661680D01*
X59480125Y-93431916D01*
X57523830Y-93016092D01*
X56753594Y-91830033D01*
X57169417Y-89873738D01*
X58355477Y-89103502D01*
G36*
X57000000Y-98000000D02*
X59000000Y-98000000D01*
X60000000Y-99000000D01*
X60000000Y-101000000D01*
X59000000Y-102000000D01*
X57000000Y-102000000D01*
X56000000Y-101000000D01*
X56000000Y-99000000D01*
X57000000Y-98000000D01*
G37*
X57000000Y-98000000D02*
X59000000Y-98000000D01*
X60000000Y-99000000D01*
X60000000Y-101000000D01*
X59000000Y-102000000D01*
X57000000Y-102000000D01*
X56000000Y-101000000D01*
X56000000Y-99000000D01*
X57000000Y-98000000D01*
D11*
X137336309Y-100000000D02*
G75*
G03X137336309Y-100000000I-37336309J0D01*
G01*
X145891176Y-100000000D02*
G75*
G03X145891176Y-100000000I-45891176J0D01*
G01*
D12*
G04 #@! TO.N,*
X58000000Y-100000000D03*
X62700000Y-100000000D03*
X54100000Y-100000000D03*
X63515094Y-107755106D03*
X65924754Y-115171277D03*
X69823666Y-121924390D03*
X75041428Y-127719302D03*
X81350000Y-132302748D03*
X88473666Y-135474408D03*
X96101088Y-137095667D03*
X103898912Y-137095667D03*
X111526334Y-135474408D03*
X118650000Y-132302748D03*
X124958572Y-127719302D03*
X130176334Y-121924390D03*
X134075246Y-115171277D03*
X136484906Y-107755106D03*
X137300000Y-100000000D03*
X136484906Y-92244894D03*
X134075246Y-84828723D03*
X130176334Y-78075610D03*
X124958572Y-72280698D03*
X118650000Y-67697252D03*
X111526334Y-64525592D03*
X103898912Y-62904333D03*
X96101088Y-62904333D03*
X88473666Y-64525592D03*
X81350000Y-67697252D03*
X75041428Y-72280698D03*
X69823666Y-78075610D03*
X65924754Y-84828723D03*
X63515094Y-92244894D03*
X55103025Y-109543147D03*
X58068263Y-118669212D03*
X62866120Y-126979343D03*
X69286905Y-134110347D03*
X77050000Y-139750566D03*
X85816120Y-143653494D03*
X95202144Y-145648555D03*
X104797856Y-145648555D03*
X114183880Y-143653494D03*
X122950000Y-139750566D03*
X130713095Y-134110347D03*
X137133880Y-126979343D03*
X141931737Y-118669212D03*
X144896975Y-109543147D03*
X145900000Y-100000000D03*
X144896975Y-90456853D03*
X141931737Y-81330788D03*
X137133880Y-73020657D03*
X130713095Y-65889653D03*
X122950000Y-60249434D03*
X114183880Y-56346506D03*
X104797856Y-54351445D03*
X95202144Y-54351445D03*
X85816120Y-56346506D03*
X77050000Y-60249434D03*
X69286905Y-65889653D03*
X62866120Y-73020657D03*
X58068263Y-81330788D03*
X55103025Y-90456853D03*
G04 #@! TD*
M02*
