G04 #@! TF.GenerationSoftware,KiCad,Pcbnew,5.0.2-bee76a0~70~ubuntu16.04.1*
G04 #@! TF.CreationDate,2019-03-20T11:46:08+01:00*
G04 #@! TF.ProjectId,ring,72696e67-2e6b-4696-9361-645f70636258,rev?*
G04 #@! TF.SameCoordinates,Original*
G04 #@! TF.FileFunction,Soldermask,Top*
G04 #@! TF.FilePolarity,Negative*
%FSLAX46Y46*%
G04 Gerber Fmt 4.6, Leading zero omitted, Abs format (unit mm)*
G04 Created by KiCad (PCBNEW 5.0.2-bee76a0~70~ubuntu16.04.1) date Wed 20 Mar 2019 11:46:08 AM CET*
%MOMM*%
%LPD*%
G01*
G04 APERTURE LIST*
%ADD10C,0.100000*%
G04 APERTURE END LIST*
D10*
G36*
X98927023Y-143223628D02*
X98801380Y-144419043D01*
X96710895Y-144199324D01*
X96836538Y-143003909D01*
X98927023Y-143223628D01*
X98927023Y-143223628D01*
G37*
G36*
X103289105Y-144199324D02*
X101198620Y-144419043D01*
X101072977Y-143223628D01*
X103163462Y-143003909D01*
X103289105Y-144199324D01*
X103289105Y-144199324D01*
G37*
G36*
X108062810Y-143697587D02*
X105972325Y-143917306D01*
X105846682Y-142721891D01*
X107937167Y-142502172D01*
X108062810Y-143697587D01*
X108062810Y-143697587D01*
G37*
G36*
X94153318Y-142721891D02*
X94027675Y-143917306D01*
X91937190Y-143697587D01*
X92062833Y-142502172D01*
X94153318Y-142721891D01*
X94153318Y-142721891D01*
G37*
G36*
X112406787Y-142549619D02*
X110407666Y-143199173D01*
X110036227Y-142056003D01*
X112035348Y-141406449D01*
X112406787Y-142549619D01*
X112406787Y-142549619D01*
G37*
G36*
X89963773Y-142056003D02*
X89592334Y-143199173D01*
X87593213Y-142549619D01*
X87964652Y-141406449D01*
X89963773Y-142056003D01*
X89963773Y-142056003D01*
G37*
G36*
X116971859Y-141066337D02*
X114972738Y-141715891D01*
X114601299Y-140572721D01*
X116600420Y-139923167D01*
X116971859Y-141066337D01*
X116971859Y-141066337D01*
G37*
G36*
X85398701Y-140572721D02*
X85027262Y-141715891D01*
X83028141Y-141066337D01*
X83399580Y-139923167D01*
X85398701Y-140572721D01*
X85398701Y-140572721D01*
G37*
G36*
X102933708Y-140817949D02*
X100843223Y-141037668D01*
X100717580Y-139842253D01*
X102808065Y-139622534D01*
X102933708Y-140817949D01*
X102933708Y-140817949D01*
G37*
G36*
X99282420Y-139842253D02*
X99156777Y-141037668D01*
X97066292Y-140817949D01*
X97191935Y-139622534D01*
X99282420Y-139842253D01*
X99282420Y-139842253D01*
G37*
G36*
X94508715Y-139340516D02*
X94383072Y-140535931D01*
X92292587Y-140316212D01*
X92418230Y-139120797D01*
X94508715Y-139340516D01*
X94508715Y-139340516D01*
G37*
G36*
X107707413Y-140316212D02*
X105616928Y-140535931D01*
X105491285Y-139340516D01*
X107581770Y-139120797D01*
X107707413Y-140316212D01*
X107707413Y-140316212D01*
G37*
G36*
X120982232Y-139040291D02*
X119161846Y-140091291D01*
X118560846Y-139050329D01*
X120381232Y-137999329D01*
X120982232Y-139040291D01*
X120982232Y-139040291D01*
G37*
G36*
X81439154Y-139050329D02*
X80838154Y-140091291D01*
X79017768Y-139040291D01*
X79618768Y-137999329D01*
X81439154Y-139050329D01*
X81439154Y-139050329D01*
G37*
G36*
X91014431Y-138822411D02*
X90642992Y-139965581D01*
X88643871Y-139316027D01*
X89015310Y-138172857D01*
X91014431Y-138822411D01*
X91014431Y-138822411D01*
G37*
G36*
X111356129Y-139316027D02*
X109357008Y-139965581D01*
X108985569Y-138822411D01*
X110984690Y-138172857D01*
X111356129Y-139316027D01*
X111356129Y-139316027D01*
G37*
G36*
X86449359Y-137339129D02*
X86077920Y-138482299D01*
X84078799Y-137832745D01*
X84450238Y-136689575D01*
X86449359Y-137339129D01*
X86449359Y-137339129D01*
G37*
G36*
X115921201Y-137832745D02*
X113922080Y-138482299D01*
X113550641Y-137339129D01*
X115549762Y-136689575D01*
X115921201Y-137832745D01*
X115921201Y-137832745D01*
G37*
G36*
X77282232Y-136650329D02*
X76681232Y-137691291D01*
X74860846Y-136640291D01*
X75461846Y-135599329D01*
X77282232Y-136650329D01*
X77282232Y-136650329D01*
G37*
G36*
X125139154Y-136640291D02*
X123318768Y-137691291D01*
X122717768Y-136650329D01*
X124538154Y-135599329D01*
X125139154Y-136640291D01*
X125139154Y-136640291D01*
G37*
G36*
X83139154Y-136105843D02*
X82538154Y-137146805D01*
X80717768Y-136095805D01*
X81318768Y-135054843D01*
X83139154Y-136105843D01*
X83139154Y-136105843D01*
G37*
G36*
X119282232Y-136095805D02*
X117461846Y-137146805D01*
X116860846Y-136105843D01*
X118681232Y-135054843D01*
X119282232Y-136095805D01*
X119282232Y-136095805D01*
G37*
G36*
X73725734Y-134337969D02*
X72921439Y-135231229D01*
X72921438Y-135231230D01*
X71359348Y-133824717D01*
X72163644Y-132931456D01*
X73725734Y-134337969D01*
X73725734Y-134337969D01*
G37*
G36*
X128640652Y-133824717D02*
X127078562Y-135231230D01*
X126274266Y-134337969D01*
X127836356Y-132931456D01*
X128640652Y-133824717D01*
X128640652Y-133824717D01*
G37*
G36*
X123439154Y-133695805D02*
X121618768Y-134746805D01*
X121017768Y-133705843D01*
X122838154Y-132654843D01*
X123439154Y-133695805D01*
X123439154Y-133695805D01*
G37*
G36*
X78982232Y-133705843D02*
X78381232Y-134746805D01*
X76560846Y-133695805D01*
X77161846Y-132654843D01*
X78982232Y-133705843D01*
X78982232Y-133705843D01*
G37*
G36*
X125561313Y-130404764D02*
X126210845Y-131126142D01*
X126365608Y-131298024D01*
X124803518Y-132704537D01*
X123999222Y-131811276D01*
X125561312Y-130404763D01*
X125561313Y-130404764D01*
X125561313Y-130404764D01*
G37*
G36*
X76000778Y-131811276D02*
X75196483Y-132704536D01*
X75196482Y-132704537D01*
X73634392Y-131298024D01*
X73789155Y-131126142D01*
X74438687Y-130404764D01*
X74438688Y-130404763D01*
X76000778Y-131811276D01*
X76000778Y-131811276D01*
G37*
G36*
X70158638Y-131126142D02*
X69354343Y-132019402D01*
X69354342Y-132019403D01*
X67792252Y-130612890D01*
X68596548Y-129719629D01*
X70158638Y-131126142D01*
X70158638Y-131126142D01*
G37*
G36*
X132207748Y-130612890D02*
X130645658Y-132019403D01*
X130458260Y-131811276D01*
X129841362Y-131126142D01*
X131403452Y-129719629D01*
X132207748Y-130612890D01*
X132207748Y-130612890D01*
G37*
G36*
X129932704Y-128086197D02*
X128370614Y-129492710D01*
X127566318Y-128599449D01*
X129128408Y-127192936D01*
X129932704Y-128086197D01*
X129932704Y-128086197D01*
G37*
G36*
X71906614Y-128124875D02*
X72433682Y-128599449D01*
X71629387Y-129492709D01*
X71629386Y-129492710D01*
X70067296Y-128086197D01*
X70871592Y-127192936D01*
X71906614Y-128124875D01*
X71906614Y-128124875D01*
G37*
G36*
X67160624Y-128124875D02*
X66188185Y-128831393D01*
X64952660Y-127130839D01*
X65925099Y-126424321D01*
X67160624Y-128124875D01*
X67160624Y-128124875D01*
G37*
G36*
X135047340Y-127130839D02*
X133811815Y-128831393D01*
X132839376Y-128124875D01*
X134074901Y-126424321D01*
X135047340Y-127130839D01*
X135047340Y-127130839D01*
G37*
G36*
X69911281Y-126126405D02*
X68938842Y-126832923D01*
X67703317Y-125132369D01*
X68675756Y-124425851D01*
X69911281Y-126126405D01*
X69911281Y-126126405D01*
G37*
G36*
X132296683Y-125132369D02*
X131061158Y-126832923D01*
X130088719Y-126126405D01*
X131324244Y-124425851D01*
X132296683Y-125132369D01*
X132296683Y-125132369D01*
G37*
G36*
X64339255Y-124241593D02*
X63366816Y-124948111D01*
X62131291Y-123247557D01*
X63103730Y-122541039D01*
X64339255Y-124241593D01*
X64339255Y-124241593D01*
G37*
G36*
X137868709Y-123247557D02*
X136633184Y-124948111D01*
X135660745Y-124241593D01*
X136896270Y-122541039D01*
X137868709Y-123247557D01*
X137868709Y-123247557D01*
G37*
G36*
X135118052Y-121249087D02*
X133882527Y-122949641D01*
X132910088Y-122243123D01*
X134145613Y-120542569D01*
X135118052Y-121249087D01*
X135118052Y-121249087D01*
G37*
G36*
X67089912Y-122243123D02*
X66117473Y-122949641D01*
X64881948Y-121249087D01*
X65854387Y-120542569D01*
X67089912Y-122243123D01*
X67089912Y-122243123D01*
G37*
G36*
X62030753Y-120682588D02*
X60932671Y-121171485D01*
X60077711Y-119251212D01*
X61175793Y-118762315D01*
X62030753Y-120682588D01*
X62030753Y-120682588D01*
G37*
G36*
X139922289Y-119251212D02*
X139067329Y-121171485D01*
X137969247Y-120682588D01*
X138824207Y-118762315D01*
X139922289Y-119251212D01*
X139922289Y-119251212D01*
G37*
G36*
X65136807Y-119299684D02*
X64038725Y-119788581D01*
X63183765Y-117868308D01*
X64281847Y-117379411D01*
X65136807Y-119299684D01*
X65136807Y-119299684D01*
G37*
G36*
X136816235Y-117868308D02*
X135961275Y-119788581D01*
X134863193Y-119299684D01*
X135718153Y-117379411D01*
X136816235Y-117868308D01*
X136816235Y-117868308D01*
G37*
G36*
X141874625Y-114866194D02*
X141019665Y-116786467D01*
X139921583Y-116297570D01*
X140776543Y-114377297D01*
X141874625Y-114866194D01*
X141874625Y-114866194D01*
G37*
G36*
X60078417Y-116297570D02*
X58980335Y-116786467D01*
X58125375Y-114866194D01*
X59223457Y-114377297D01*
X60078417Y-116297570D01*
X60078417Y-116297570D01*
G37*
G36*
X138768571Y-113483290D02*
X137913611Y-115403563D01*
X136815529Y-114914666D01*
X137670489Y-112994393D01*
X138768571Y-113483290D01*
X138768571Y-113483290D01*
G37*
G36*
X63184471Y-114914666D02*
X62086389Y-115403563D01*
X61231429Y-113483290D01*
X62329511Y-112994393D01*
X63184471Y-114914666D01*
X63184471Y-114914666D01*
G37*
G36*
X143052444Y-110530216D02*
X143052444Y-110530217D01*
X142615414Y-112586283D01*
X141439680Y-112336374D01*
X141876710Y-110280307D01*
X143052444Y-110530216D01*
X143052444Y-110530216D01*
G37*
G36*
X58560320Y-112336374D02*
X57384586Y-112586283D01*
X56947556Y-110530216D01*
X58123290Y-110280307D01*
X58560320Y-112336374D01*
X58560320Y-112336374D01*
G37*
G36*
X139726742Y-109823316D02*
X139289712Y-111879383D01*
X138113978Y-111629474D01*
X138551008Y-109573407D01*
X139726742Y-109823316D01*
X139726742Y-109823316D01*
G37*
G36*
X61886022Y-111629474D02*
X60710288Y-111879383D01*
X60273258Y-109823317D01*
X60273258Y-109823316D01*
X61448992Y-109573407D01*
X61886022Y-111629474D01*
X61886022Y-111629474D01*
G37*
G36*
X57562344Y-107641266D02*
X56386610Y-107891175D01*
X55949580Y-105835109D01*
X55949580Y-105835108D01*
X57125314Y-105585199D01*
X57562344Y-107641266D01*
X57562344Y-107641266D01*
G37*
G36*
X144050420Y-105835108D02*
X144050420Y-105835109D01*
X143613390Y-107891175D01*
X142437656Y-107641266D01*
X142874686Y-105585199D01*
X144050420Y-105835108D01*
X144050420Y-105835108D01*
G37*
G36*
X60888046Y-106934366D02*
X59712312Y-107184275D01*
X59275282Y-105128209D01*
X59275282Y-105128208D01*
X60451016Y-104878299D01*
X60888046Y-106934366D01*
X60888046Y-106934366D01*
G37*
G36*
X140724718Y-105128208D02*
X140287688Y-107184275D01*
X139111954Y-106934366D01*
X139548984Y-104878299D01*
X140724718Y-105128208D01*
X140724718Y-105128208D01*
G37*
G36*
X144301000Y-103451000D02*
X143099000Y-103451000D01*
X143099000Y-101349000D01*
X144301000Y-101349000D01*
X144301000Y-103451000D01*
X144301000Y-103451000D01*
G37*
G36*
X140901000Y-103451000D02*
X139699000Y-103451000D01*
X139699000Y-101349000D01*
X140901000Y-101349000D01*
X140901000Y-103451000D01*
X140901000Y-103451000D01*
G37*
G36*
X56901000Y-103451000D02*
X55699000Y-103451000D01*
X55699000Y-101349000D01*
X56901000Y-101349000D01*
X56901000Y-103451000D01*
X56901000Y-103451000D01*
G37*
G36*
X60301000Y-103451000D02*
X59099000Y-103451000D01*
X59099000Y-101349000D01*
X60301000Y-101349000D01*
X60301000Y-103451000D01*
X60301000Y-103451000D01*
G37*
G36*
X56901000Y-98651000D02*
X55699000Y-98651000D01*
X55699000Y-96549000D01*
X56901000Y-96549000D01*
X56901000Y-98651000D01*
X56901000Y-98651000D01*
G37*
G36*
X144301000Y-98651000D02*
X143099000Y-98651000D01*
X143099000Y-96549000D01*
X144301000Y-96549000D01*
X144301000Y-98651000D01*
X144301000Y-98651000D01*
G37*
G36*
X140901000Y-98651000D02*
X139699000Y-98651000D01*
X139699000Y-96549000D01*
X140901000Y-96549000D01*
X140901000Y-98651000D01*
X140901000Y-98651000D01*
G37*
G36*
X60301000Y-98651000D02*
X59099000Y-98651000D01*
X59099000Y-96549000D01*
X60301000Y-96549000D01*
X60301000Y-98651000D01*
X60301000Y-98651000D01*
G37*
G36*
X60888046Y-93065634D02*
X60451016Y-95121701D01*
X59275282Y-94871792D01*
X59712312Y-92815725D01*
X60888046Y-93065634D01*
X60888046Y-93065634D01*
G37*
G36*
X140724718Y-94871792D02*
X139548984Y-95121701D01*
X139111954Y-93065635D01*
X139111954Y-93065634D01*
X140287688Y-92815725D01*
X140724718Y-94871792D01*
X140724718Y-94871792D01*
G37*
G36*
X57562344Y-92358734D02*
X57125314Y-94414801D01*
X55949580Y-94164892D01*
X56386610Y-92108825D01*
X57562344Y-92358734D01*
X57562344Y-92358734D01*
G37*
G36*
X144050420Y-94164892D02*
X142874686Y-94414801D01*
X142437656Y-92358735D01*
X142437656Y-92358734D01*
X143613390Y-92108825D01*
X144050420Y-94164892D01*
X144050420Y-94164892D01*
G37*
G36*
X139726742Y-90176684D02*
X138551008Y-90426593D01*
X138113978Y-88370527D01*
X138113978Y-88370526D01*
X139289712Y-88120617D01*
X139726742Y-90176684D01*
X139726742Y-90176684D01*
G37*
G36*
X61886022Y-88370526D02*
X61448992Y-90426593D01*
X60273258Y-90176684D01*
X60710288Y-88120617D01*
X61886022Y-88370526D01*
X61886022Y-88370526D01*
G37*
G36*
X58560320Y-87663626D02*
X58123290Y-89719693D01*
X56947556Y-89469784D01*
X57384586Y-87413717D01*
X58560320Y-87663626D01*
X58560320Y-87663626D01*
G37*
G36*
X143052444Y-89469784D02*
X141876710Y-89719693D01*
X141439680Y-87663627D01*
X141439680Y-87663626D01*
X142615414Y-87413717D01*
X143052444Y-89469784D01*
X143052444Y-89469784D01*
G37*
G36*
X63184471Y-85085334D02*
X62329511Y-87005607D01*
X61231429Y-86516710D01*
X62086389Y-84596437D01*
X63184471Y-85085334D01*
X63184471Y-85085334D01*
G37*
G36*
X138768571Y-86516710D02*
X137670489Y-87005607D01*
X136815529Y-85085334D01*
X137913611Y-84596437D01*
X138768571Y-86516710D01*
X138768571Y-86516710D01*
G37*
G36*
X60078417Y-83702430D02*
X59223457Y-85622703D01*
X58125375Y-85133806D01*
X58980335Y-83213533D01*
X60078417Y-83702430D01*
X60078417Y-83702430D01*
G37*
G36*
X141874625Y-85133806D02*
X140776543Y-85622703D01*
X139921583Y-83702430D01*
X141019665Y-83213533D01*
X141874625Y-85133806D01*
X141874625Y-85133806D01*
G37*
G36*
X65136807Y-80700316D02*
X64281847Y-82620589D01*
X63183765Y-82131692D01*
X64038725Y-80211419D01*
X65136807Y-80700316D01*
X65136807Y-80700316D01*
G37*
G36*
X136816235Y-82131692D02*
X135718153Y-82620589D01*
X134863193Y-80700316D01*
X135961275Y-80211419D01*
X136816235Y-82131692D01*
X136816235Y-82131692D01*
G37*
G36*
X139922289Y-80748788D02*
X138824207Y-81237685D01*
X137969247Y-79317412D01*
X139067329Y-78828515D01*
X139922289Y-80748788D01*
X139922289Y-80748788D01*
G37*
G36*
X62030753Y-79317412D02*
X61175793Y-81237685D01*
X60077711Y-80748788D01*
X60932671Y-78828515D01*
X62030753Y-79317412D01*
X62030753Y-79317412D01*
G37*
G36*
X67089912Y-77756877D02*
X65854387Y-79457431D01*
X64881948Y-78750913D01*
X66117473Y-77050359D01*
X67089912Y-77756877D01*
X67089912Y-77756877D01*
G37*
G36*
X135118052Y-78750913D02*
X134145613Y-79457431D01*
X132910088Y-77756877D01*
X133882527Y-77050359D01*
X135118052Y-78750913D01*
X135118052Y-78750913D01*
G37*
G36*
X137868709Y-76752443D02*
X136896270Y-77458961D01*
X135660745Y-75758407D01*
X136633184Y-75051889D01*
X137868709Y-76752443D01*
X137868709Y-76752443D01*
G37*
G36*
X64339255Y-75758407D02*
X63103730Y-77458961D01*
X62131291Y-76752443D01*
X63366816Y-75051889D01*
X64339255Y-75758407D01*
X64339255Y-75758407D01*
G37*
G36*
X132296683Y-74867631D02*
X131324244Y-75574149D01*
X130088719Y-73873595D01*
X131061158Y-73167077D01*
X132296683Y-74867631D01*
X132296683Y-74867631D01*
G37*
G36*
X69911281Y-73873595D02*
X68675756Y-75574149D01*
X67703317Y-74867631D01*
X68938842Y-73167077D01*
X69911281Y-73873595D01*
X69911281Y-73873595D01*
G37*
G36*
X135047340Y-72869161D02*
X134074901Y-73575679D01*
X132839376Y-71875125D01*
X133811815Y-71168607D01*
X135047340Y-72869161D01*
X135047340Y-72869161D01*
G37*
G36*
X67160624Y-71875125D02*
X65925099Y-73575679D01*
X64952660Y-72869161D01*
X66188185Y-71168607D01*
X67160624Y-71875125D01*
X67160624Y-71875125D01*
G37*
G36*
X129889748Y-71875125D02*
X129932704Y-71913803D01*
X129128409Y-72807063D01*
X129128408Y-72807064D01*
X127566318Y-71400551D01*
X128370614Y-70507290D01*
X129889748Y-71875125D01*
X129889748Y-71875125D01*
G37*
G36*
X72433682Y-71400551D02*
X70871592Y-72807064D01*
X70067296Y-71913803D01*
X71629386Y-70507290D01*
X72433682Y-71400551D01*
X72433682Y-71400551D01*
G37*
G36*
X132207748Y-69387110D02*
X131403453Y-70280370D01*
X131403452Y-70280371D01*
X129841362Y-68873858D01*
X129996125Y-68701976D01*
X130645657Y-67980598D01*
X130645658Y-67980597D01*
X132207748Y-69387110D01*
X132207748Y-69387110D01*
G37*
G36*
X69354343Y-67980598D02*
X70003875Y-68701976D01*
X70158638Y-68873858D01*
X68596548Y-70280371D01*
X67792252Y-69387110D01*
X69354342Y-67980597D01*
X69354343Y-67980598D01*
X69354343Y-67980598D01*
G37*
G36*
X76000778Y-68188724D02*
X74438688Y-69595237D01*
X74251290Y-69387110D01*
X73634392Y-68701976D01*
X75196482Y-67295463D01*
X76000778Y-68188724D01*
X76000778Y-68188724D01*
G37*
G36*
X126365608Y-68701976D02*
X125561313Y-69595236D01*
X125561312Y-69595237D01*
X123999222Y-68188724D01*
X124803518Y-67295463D01*
X126365608Y-68701976D01*
X126365608Y-68701976D01*
G37*
G36*
X78982232Y-66294157D02*
X77161846Y-67345157D01*
X76560846Y-66304195D01*
X78381232Y-65253195D01*
X78982232Y-66294157D01*
X78982232Y-66294157D01*
G37*
G36*
X123439154Y-66304195D02*
X122838154Y-67345157D01*
X121017768Y-66294157D01*
X121618768Y-65253195D01*
X123439154Y-66304195D01*
X123439154Y-66304195D01*
G37*
G36*
X73725734Y-65662031D02*
X72163644Y-67068544D01*
X71359348Y-66175283D01*
X72921438Y-64768770D01*
X73725734Y-65662031D01*
X73725734Y-65662031D01*
G37*
G36*
X128640652Y-66175283D02*
X127836357Y-67068543D01*
X127836356Y-67068544D01*
X126274266Y-65662031D01*
X127078562Y-64768770D01*
X128640652Y-66175283D01*
X128640652Y-66175283D01*
G37*
G36*
X119282232Y-63904195D02*
X118681232Y-64945157D01*
X116860846Y-63894157D01*
X117461846Y-62853195D01*
X119282232Y-63904195D01*
X119282232Y-63904195D01*
G37*
G36*
X83139154Y-63894157D02*
X81318768Y-64945157D01*
X80717768Y-63904195D01*
X82538154Y-62853195D01*
X83139154Y-63894157D01*
X83139154Y-63894157D01*
G37*
G36*
X77282232Y-63349671D02*
X75461846Y-64400671D01*
X74860846Y-63359709D01*
X76681232Y-62308709D01*
X77282232Y-63349671D01*
X77282232Y-63349671D01*
G37*
G36*
X125139154Y-63359709D02*
X124538154Y-64400671D01*
X122717768Y-63349671D01*
X123318768Y-62308709D01*
X125139154Y-63359709D01*
X125139154Y-63359709D01*
G37*
G36*
X86449359Y-62660871D02*
X84450238Y-63310425D01*
X84078799Y-62167255D01*
X86077920Y-61517701D01*
X86449359Y-62660871D01*
X86449359Y-62660871D01*
G37*
G36*
X115921201Y-62167255D02*
X115549762Y-63310425D01*
X113550641Y-62660871D01*
X113922080Y-61517701D01*
X115921201Y-62167255D01*
X115921201Y-62167255D01*
G37*
G36*
X120982232Y-60959709D02*
X120381232Y-62000671D01*
X118560846Y-60949671D01*
X119161846Y-59908709D01*
X120982232Y-60959709D01*
X120982232Y-60959709D01*
G37*
G36*
X81439154Y-60949671D02*
X79618768Y-62000671D01*
X79017768Y-60959709D01*
X80838154Y-59908709D01*
X81439154Y-60949671D01*
X81439154Y-60949671D01*
G37*
G36*
X91014431Y-61177589D02*
X89015310Y-61827143D01*
X88643871Y-60683973D01*
X90642992Y-60034419D01*
X91014431Y-61177589D01*
X91014431Y-61177589D01*
G37*
G36*
X111356129Y-60683973D02*
X110984690Y-61827143D01*
X108985569Y-61177589D01*
X109357008Y-60034419D01*
X111356129Y-60683973D01*
X111356129Y-60683973D01*
G37*
G36*
X94508715Y-60659484D02*
X92418230Y-60879203D01*
X92292587Y-59683788D01*
X94383072Y-59464069D01*
X94508715Y-60659484D01*
X94508715Y-60659484D01*
G37*
G36*
X107707413Y-59683788D02*
X107581770Y-60879203D01*
X105491285Y-60659484D01*
X105616928Y-59464069D01*
X107707413Y-59683788D01*
X107707413Y-59683788D01*
G37*
G36*
X102933708Y-59182051D02*
X102808065Y-60377466D01*
X100717580Y-60157747D01*
X100843223Y-58962332D01*
X102933708Y-59182051D01*
X102933708Y-59182051D01*
G37*
G36*
X99282420Y-60157747D02*
X97191935Y-60377466D01*
X97066292Y-59182051D01*
X99156777Y-58962332D01*
X99282420Y-60157747D01*
X99282420Y-60157747D01*
G37*
G36*
X85398701Y-59427279D02*
X83399580Y-60076833D01*
X83028141Y-58933663D01*
X85027262Y-58284109D01*
X85398701Y-59427279D01*
X85398701Y-59427279D01*
G37*
G36*
X116971859Y-58933663D02*
X116600420Y-60076833D01*
X114601299Y-59427279D01*
X114972738Y-58284109D01*
X116971859Y-58933663D01*
X116971859Y-58933663D01*
G37*
G36*
X89963773Y-57943997D02*
X87964652Y-58593551D01*
X87593213Y-57450381D01*
X89592334Y-56800827D01*
X89963773Y-57943997D01*
X89963773Y-57943997D01*
G37*
G36*
X112406787Y-57450381D02*
X112035348Y-58593551D01*
X110036227Y-57943997D01*
X110407666Y-56800827D01*
X112406787Y-57450381D01*
X112406787Y-57450381D01*
G37*
G36*
X108062810Y-56302413D02*
X107937167Y-57497828D01*
X105846682Y-57278109D01*
X105972325Y-56082694D01*
X108062810Y-56302413D01*
X108062810Y-56302413D01*
G37*
G36*
X94153318Y-57278109D02*
X92062833Y-57497828D01*
X91937190Y-56302413D01*
X94027675Y-56082694D01*
X94153318Y-57278109D01*
X94153318Y-57278109D01*
G37*
G36*
X103289105Y-55800676D02*
X103163462Y-56996091D01*
X101072977Y-56776372D01*
X101198620Y-55580957D01*
X103289105Y-55800676D01*
X103289105Y-55800676D01*
G37*
G36*
X98927023Y-56776372D02*
X96836538Y-56996091D01*
X96710895Y-55800676D01*
X98801380Y-55580957D01*
X98927023Y-56776372D01*
X98927023Y-56776372D01*
G37*
M02*
