M48
;DRILL file {KiCad 5.0.2-bee76a0~70~ubuntu16.04.1} date Wed 20 Mar 2019 11:46:10 AM CET
;FORMAT={-:-/ absolute / inch / decimal}
FMAT,2
INCH,TZ
T1C0.0197
%
G90
G05
T1
X2.1299Y-3.937
X2.1694Y-3.5613
X2.1694Y-4.3127
X2.2835Y-3.937
X2.2862Y-3.202
X2.2862Y-4.672
X2.4685Y-3.937
X2.475Y-2.8748
X2.475Y-4.9992
X2.5006Y-3.6317
X2.5006Y-4.2423
X2.5955Y-3.3397
X2.5955Y-4.5343
X2.7278Y-2.5941
X2.7278Y-5.2799
X2.749Y-3.0738
X2.749Y-4.8002
X2.9544Y-2.8457
X2.9544Y-5.0283
X3.0335Y-2.372
X3.0335Y-5.502
X3.2028Y-2.6652
X3.2028Y-5.2088
X3.3786Y-2.2184
X3.3786Y-5.6556
X3.4832Y-2.5404
X3.4832Y-5.3336
X3.7481Y-2.1398
X3.7481Y-5.7342
X3.7835Y-2.4765
X3.7835Y-5.3975
X4.0905Y-2.4765
X4.0905Y-5.3975
X4.1259Y-2.1398
X4.1259Y-5.7342
X4.3908Y-2.5404
X4.3908Y-5.3336
X4.4954Y-2.2184
X4.4954Y-5.6556
X4.6713Y-2.6652
X4.6713Y-5.2088
X4.8406Y-2.372
X4.8406Y-5.502
X4.9196Y-2.8457
X4.9196Y-5.0283
X5.1251Y-3.0738
X5.1251Y-4.8002
X5.1462Y-2.5941
X5.1462Y-5.2799
X5.2786Y-3.3397
X5.2786Y-4.5343
X5.3734Y-3.6317
X5.3734Y-4.2423
X5.399Y-2.8748
X5.399Y-4.9992
X5.4055Y-3.937
X5.5879Y-3.202
X5.5879Y-4.672
X5.7046Y-3.5613
X5.7046Y-4.3127
X5.7441Y-3.937
T0
M30
