G04 #@! TF.GenerationSoftware,KiCad,Pcbnew,5.0.2-bee76a0~70~ubuntu16.04.1*
G04 #@! TF.CreationDate,2019-03-20T11:46:08+01:00*
G04 #@! TF.ProjectId,ring,72696e67-2e6b-4696-9361-645f70636258,rev?*
G04 #@! TF.SameCoordinates,Original*
G04 #@! TF.FileFunction,Copper,L1,Top*
G04 #@! TF.FilePolarity,Positive*
%FSLAX46Y46*%
G04 Gerber Fmt 4.6, Leading zero omitted, Abs format (unit mm)*
G04 Created by KiCad (PCBNEW 5.0.2-bee76a0~70~ubuntu16.04.1) date Wed 20 Mar 2019 11:46:08 AM CET*
%MOMM*%
%LPD*%
G01*
G04 APERTURE LIST*
%ADD10C,1.200000*%
%ADD11C,0.500000*%
G04 #@! TA.AperFunction,SMDPad,CuDef*
%ADD12C,1.100000*%
G04 #@! TD*
G04 #@! TA.AperFunction,Conductor*
%ADD13C,0.100000*%
G04 #@! TD*
G04 #@! TA.AperFunction,SMDPad,CuDef*
%ADD14R,1.100000X2.000000*%
G04 #@! TD*
G04 #@! TA.AperFunction,ViaPad*
%ADD15C,1.000000*%
G04 #@! TD*
G04 #@! TA.AperFunction,Conductor*
%ADD16C,0.500000*%
G04 #@! TD*
G04 APERTURE END LIST*
D10*
X145025495Y-107014613D02*
X143558274Y-106702745D01*
X142583160Y-116222654D02*
X141212842Y-115612549D01*
X138279736Y-124721686D02*
X137066211Y-123840009D01*
X132303305Y-132140263D02*
X131299609Y-131025546D01*
X124915064Y-138154156D02*
X124165064Y-136855118D01*
X116437915Y-142500529D02*
X115974389Y-141073944D01*
X107242350Y-144989425D02*
X107085557Y-143497642D01*
X97730260Y-145512067D02*
X97887052Y-144020285D01*
X88317368Y-144045614D02*
X88780894Y-142619029D01*
X79415064Y-140654156D02*
X80165064Y-139355118D01*
X71412419Y-135485916D02*
X72416115Y-134371199D01*
X64659190Y-128766771D02*
X65872715Y-127885094D01*
X59450523Y-120790381D02*
X60820841Y-120180276D01*
X56014063Y-111905351D02*
X57481285Y-111593483D01*
X54500000Y-102500000D02*
X56000000Y-102500000D01*
X54974505Y-92985387D02*
X56441726Y-93297255D01*
X57416840Y-83777346D02*
X58787158Y-84387451D01*
X61720264Y-75278314D02*
X62933789Y-76159991D01*
X67696695Y-67859737D02*
X68700391Y-68974454D01*
X75084936Y-61845844D02*
X75834936Y-63144882D01*
X83562085Y-57499471D02*
X84025611Y-58926056D01*
X92757650Y-55010575D02*
X92914443Y-56502358D01*
X102269740Y-54487933D02*
X102112948Y-55979715D01*
X111682632Y-55954386D02*
X111219106Y-57380971D01*
X120584936Y-59345844D02*
X119834936Y-60644882D01*
X128587581Y-64514084D02*
X127583885Y-65628801D01*
X135340810Y-71233229D02*
X134127285Y-72114906D01*
X140549477Y-79209619D02*
X139179159Y-79819724D01*
X143985937Y-88094649D02*
X142518715Y-88406517D01*
D11*
X140238713Y-105485981D02*
X143307817Y-103071317D01*
X138218801Y-113732198D02*
X141722875Y-112008403D01*
X134528544Y-121378252D02*
X138314442Y-120420664D01*
X129329224Y-128089974D02*
X133231485Y-127940444D01*
X122848076Y-133574029D02*
X126696152Y-134239092D01*
X115368358Y-137590738D02*
X118994070Y-139041328D01*
X107216968Y-139964551D02*
X110461855Y-142137271D01*
X98750163Y-140591722D02*
X101472407Y-143391612D01*
X90337981Y-139444840D02*
X92418608Y-142749532D01*
X82348076Y-136574029D02*
X83696152Y-140239092D01*
X75129645Y-132104757D02*
X75686253Y-135970011D01*
X68998167Y-126232354D02*
X68738981Y-130128868D01*
X64221619Y-119213470D02*
X63157965Y-122970948D01*
X61008757Y-111354866D02*
X59187123Y-114809088D01*
X59761287Y-94514019D02*
X56692183Y-96928683D01*
X61781199Y-86267802D02*
X58277125Y-87991597D01*
X65471456Y-78621748D02*
X61685558Y-79579336D01*
X70670776Y-71910026D02*
X66768515Y-72059556D01*
X77151924Y-66425971D02*
X73303848Y-65760908D01*
X84631642Y-62409262D02*
X81005930Y-60958672D01*
X92783032Y-60035449D02*
X89538145Y-57862729D01*
X101249837Y-59408278D02*
X98527593Y-56608388D01*
X109662019Y-60555160D02*
X107581392Y-57250468D01*
X117651924Y-63425971D02*
X116303848Y-59760908D01*
X124870355Y-67895243D02*
X124313747Y-64029989D01*
X131001833Y-73767646D02*
X131261019Y-69871132D01*
X135778381Y-80786530D02*
X136842035Y-77029052D01*
X138991243Y-88645134D02*
X140812877Y-85190912D01*
D10*
X138710081Y-110272763D02*
X136264712Y-109752984D01*
X135728345Y-118096557D02*
X133444481Y-117079715D01*
X131185109Y-125129444D02*
X129162567Y-123659981D01*
X125278935Y-131064054D02*
X123606108Y-129206192D01*
X118267949Y-135641016D02*
X117017949Y-133475953D01*
X110458567Y-138660295D02*
X109686024Y-136282653D01*
X102192095Y-139989933D02*
X101930774Y-137503628D01*
X93829818Y-139571819D02*
X94091139Y-137085514D01*
X85737207Y-137424227D02*
X86509750Y-135046585D01*
X78267949Y-133641016D02*
X79517949Y-131475953D01*
X71748486Y-128387532D02*
X73421313Y-126529670D01*
X66463750Y-121893376D02*
X68486292Y-120423913D01*
X62644708Y-114442375D02*
X64928572Y-113425533D01*
X60458273Y-106360172D02*
X62903642Y-105840393D01*
X60000000Y-98000000D02*
X62500000Y-98000000D01*
X61289919Y-89727237D02*
X63735288Y-90247016D01*
X64271655Y-81903443D02*
X66555519Y-82920285D01*
X68814891Y-74870556D02*
X70837433Y-76340019D01*
X74721065Y-68935946D02*
X76393892Y-70793808D01*
X81732051Y-64358984D02*
X82982051Y-66524047D01*
X89541433Y-61339705D02*
X90313976Y-63717347D01*
X97807905Y-60010067D02*
X98069226Y-62496372D01*
X106170182Y-60428181D02*
X105908861Y-62914486D01*
X114262793Y-62575773D02*
X113490250Y-64953415D01*
X121732051Y-66358984D02*
X120482051Y-68524047D01*
X128251514Y-71612468D02*
X126578687Y-73470330D01*
X133536250Y-78106624D02*
X131513708Y-79576087D01*
X137355292Y-85557625D02*
X135071428Y-86574467D01*
X139541727Y-93639828D02*
X137096358Y-94159607D01*
X145500000Y-97500000D02*
X144000000Y-97500000D01*
X140000000Y-102000000D02*
X137500000Y-102000000D01*
D11*
X140500000Y-97000000D02*
X143000000Y-94000000D01*
D10*
X137336309Y-100000000D02*
G75*
G03X137336309Y-100000000I-37336309J0D01*
G01*
X145891176Y-100000000D02*
G75*
G03X145891176Y-100000000I-45891176J0D01*
G01*
D12*
G04 #@! TO.P,REF\002A\002A,2*
G04 #@! TO.N,N/C*
X139918336Y-106031287D03*
D13*
G04 #@! TD*
G04 #@! TO.N,N/C*
G04 #@! TO.C,REF\002A\002A*
G36*
X140664229Y-105167491D02*
X140248405Y-107123786D01*
X139172443Y-106895083D01*
X139588267Y-104938788D01*
X140664229Y-105167491D01*
X140664229Y-105167491D01*
G37*
D12*
G04 #@! TO.P,REF\002A\002A,1*
G04 #@! TO.N,N/C*
X143244038Y-106738187D03*
D13*
G04 #@! TD*
G04 #@! TO.N,N/C*
G04 #@! TO.C,REF\002A\002A*
G36*
X143989931Y-105874391D02*
X143574107Y-107830686D01*
X142498145Y-107601983D01*
X142913969Y-105645688D01*
X143989931Y-105874391D01*
X143989931Y-105874391D01*
G37*
D12*
G04 #@! TO.P,REF\002A\002A,4*
G04 #@! TO.N,N/C*
X142246062Y-111433295D03*
D13*
G04 #@! TD*
G04 #@! TO.N,N/C*
G04 #@! TO.C,REF\002A\002A*
G36*
X142991955Y-110569499D02*
X142576131Y-112525794D01*
X141500169Y-112297091D01*
X141915993Y-110340796D01*
X142991955Y-110569499D01*
X142991955Y-110569499D01*
G37*
D12*
G04 #@! TO.P,REF\002A\002A,3*
G04 #@! TO.N,N/C*
X138920360Y-110726395D03*
D13*
G04 #@! TD*
G04 #@! TO.N,N/C*
G04 #@! TO.C,REF\002A\002A*
G36*
X139666253Y-109862599D02*
X139250429Y-111818894D01*
X138174467Y-111590191D01*
X138590291Y-109633896D01*
X139666253Y-109862599D01*
X139666253Y-109862599D01*
G37*
D12*
G04 #@! TO.P,REF\002A\002A,2*
G04 #@! TO.N,N/C*
X137792050Y-114198978D03*
D13*
G04 #@! TD*
G04 #@! TO.N,N/C*
G04 #@! TO.C,REF\002A\002A*
G36*
X138701237Y-113509138D02*
X137887763Y-115336229D01*
X136882863Y-114888818D01*
X137696337Y-113061727D01*
X138701237Y-113509138D01*
X138701237Y-113509138D01*
G37*
D12*
G04 #@! TO.P,REF\002A\002A,1*
G04 #@! TO.N,N/C*
X140898104Y-115581882D03*
D13*
G04 #@! TD*
G04 #@! TO.N,N/C*
G04 #@! TO.C,REF\002A\002A*
G36*
X141807291Y-114892042D02*
X140993817Y-116719133D01*
X139988917Y-116271722D01*
X140802391Y-114444631D01*
X141807291Y-114892042D01*
X141807291Y-114892042D01*
G37*
D12*
G04 #@! TO.P,REF\002A\002A,4*
G04 #@! TO.N,N/C*
X138945768Y-119966900D03*
D13*
G04 #@! TD*
G04 #@! TO.N,N/C*
G04 #@! TO.C,REF\002A\002A*
G36*
X139854955Y-119277060D02*
X139041481Y-121104151D01*
X138036581Y-120656740D01*
X138850055Y-118829649D01*
X139854955Y-119277060D01*
X139854955Y-119277060D01*
G37*
D12*
G04 #@! TO.P,REF\002A\002A,3*
G04 #@! TO.N,N/C*
X135839714Y-118583996D03*
D13*
G04 #@! TD*
G04 #@! TO.N,N/C*
G04 #@! TO.C,REF\002A\002A*
G36*
X136748901Y-117894156D02*
X135935427Y-119721247D01*
X134930527Y-119273836D01*
X135744001Y-117446745D01*
X136748901Y-117894156D01*
X136748901Y-117894156D01*
G37*
D12*
G04 #@! TO.P,REF\002A\002A,2*
G04 #@! TO.N,N/C*
X134014070Y-121746105D03*
D13*
G04 #@! TD*
G04 #@! TO.N,N/C*
G04 #@! TO.C,REF\002A\002A*
G36*
X135046815Y-121260370D02*
X133871244Y-122878404D01*
X132981325Y-122231840D01*
X134156896Y-120613806D01*
X135046815Y-121260370D01*
X135046815Y-121260370D01*
G37*
D12*
G04 #@! TO.P,REF\002A\002A,1*
G04 #@! TO.N,N/C*
X136764727Y-123744575D03*
D13*
G04 #@! TD*
G04 #@! TO.N,N/C*
G04 #@! TO.C,REF\002A\002A*
G36*
X137797472Y-123258840D02*
X136621901Y-124876874D01*
X135731982Y-124230310D01*
X136907553Y-122612276D01*
X137797472Y-123258840D01*
X137797472Y-123258840D01*
G37*
D12*
G04 #@! TO.P,REF\002A\002A,4*
G04 #@! TO.N,N/C*
X133943358Y-127627857D03*
D13*
G04 #@! TD*
G04 #@! TO.N,N/C*
G04 #@! TO.C,REF\002A\002A*
G36*
X134976103Y-127142122D02*
X133800532Y-128760156D01*
X132910613Y-128113592D01*
X134086184Y-126495558D01*
X134976103Y-127142122D01*
X134976103Y-127142122D01*
G37*
D12*
G04 #@! TO.P,REF\002A\002A,3*
G04 #@! TO.N,N/C*
X131192701Y-125629387D03*
D13*
G04 #@! TD*
G04 #@! TO.N,N/C*
G04 #@! TO.C,REF\002A\002A*
G36*
X132225446Y-125143652D02*
X131049875Y-126761686D01*
X130159956Y-126115122D01*
X131335527Y-124497088D01*
X132225446Y-125143652D01*
X132225446Y-125143652D01*
G37*
D12*
G04 #@! TO.P,REF\002A\002A,2*
G04 #@! TO.N,N/C*
X128749511Y-128342823D03*
D13*
G04 #@! TD*
G04 #@! TO.N,N/C*
G04 #@! TO.C,REF\002A\002A*
G36*
X129860678Y-128082422D02*
X128374388Y-129420683D01*
X127638344Y-128603224D01*
X129124634Y-127264963D01*
X129860678Y-128082422D01*
X129860678Y-128082422D01*
G37*
D12*
G04 #@! TO.P,REF\002A\002A,1*
G04 #@! TO.N,N/C*
X131024555Y-130869516D03*
D13*
G04 #@! TD*
G04 #@! TO.N,N/C*
G04 #@! TO.C,REF\002A\002A*
G36*
X132135722Y-130609115D02*
X130649432Y-131947376D01*
X129913388Y-131129917D01*
X131399678Y-129791656D01*
X132135722Y-130609115D01*
X132135722Y-130609115D01*
G37*
D12*
G04 #@! TO.P,REF\002A\002A,4*
G04 #@! TO.N,N/C*
X127457459Y-134081343D03*
D13*
G04 #@! TD*
G04 #@! TO.N,N/C*
G04 #@! TO.C,REF\002A\002A*
G36*
X128568626Y-133820942D02*
X127082336Y-135159203D01*
X126346292Y-134341744D01*
X127832582Y-133003483D01*
X128568626Y-133820942D01*
X128568626Y-133820942D01*
G37*
D12*
G04 #@! TO.P,REF\002A\002A,3*
G04 #@! TO.N,N/C*
X125182415Y-131554650D03*
D13*
G04 #@! TD*
G04 #@! TO.N,N/C*
G04 #@! TO.C,REF\002A\002A*
G36*
X126293582Y-131294249D02*
X124807292Y-132632510D01*
X124071248Y-131815051D01*
X125557538Y-130476790D01*
X126293582Y-131294249D01*
X126293582Y-131294249D01*
G37*
D12*
G04 #@! TO.P,REF\002A\002A,2*
G04 #@! TO.N,N/C*
X122228461Y-133700824D03*
D13*
G04 #@! TD*
G04 #@! TO.N,N/C*
G04 #@! TO.C,REF\002A\002A*
G36*
X123369486Y-133677138D02*
X121637436Y-134677138D01*
X121087436Y-133724510D01*
X122819486Y-132724510D01*
X123369486Y-133677138D01*
X123369486Y-133677138D01*
G37*
D12*
G04 #@! TO.P,REF\002A\002A,1*
G04 #@! TO.N,N/C*
X123928461Y-136645310D03*
D13*
G04 #@! TD*
G04 #@! TO.N,N/C*
G04 #@! TO.C,REF\002A\002A*
G36*
X125069486Y-136621624D02*
X123337436Y-137621624D01*
X122787436Y-136668996D01*
X124519486Y-135668996D01*
X125069486Y-136621624D01*
X125069486Y-136621624D01*
G37*
D12*
G04 #@! TO.P,REF\002A\002A,4*
G04 #@! TO.N,N/C*
X119771539Y-139045310D03*
D13*
G04 #@! TD*
G04 #@! TO.N,N/C*
G04 #@! TO.C,REF\002A\002A*
G36*
X120912564Y-139021624D02*
X119180514Y-140021624D01*
X118630514Y-139068996D01*
X120362564Y-138068996D01*
X120912564Y-139021624D01*
X120912564Y-139021624D01*
G37*
D12*
G04 #@! TO.P,REF\002A\002A,3*
G04 #@! TO.N,N/C*
X118071539Y-136100824D03*
D13*
G04 #@! TD*
G04 #@! TO.N,N/C*
G04 #@! TO.C,REF\002A\002A*
G36*
X119212564Y-136077138D02*
X117480514Y-137077138D01*
X116930514Y-136124510D01*
X118662564Y-135124510D01*
X119212564Y-136077138D01*
X119212564Y-136077138D01*
G37*
D12*
G04 #@! TO.P,REF\002A\002A,2*
G04 #@! TO.N,N/C*
X114735921Y-137585937D03*
D13*
G04 #@! TD*
G04 #@! TO.N,N/C*
G04 #@! TO.C,REF\002A\002A*
G36*
X115856937Y-137800001D02*
X113954824Y-138418035D01*
X113614905Y-137371873D01*
X115517018Y-136753839D01*
X115856937Y-137800001D01*
X115856937Y-137800001D01*
G37*
D12*
G04 #@! TO.P,REF\002A\002A,1*
G04 #@! TO.N,N/C*
X115786579Y-140819529D03*
D13*
G04 #@! TD*
G04 #@! TO.N,N/C*
G04 #@! TO.C,REF\002A\002A*
G36*
X116907595Y-141033593D02*
X115005482Y-141651627D01*
X114665563Y-140605465D01*
X116567676Y-139987431D01*
X116907595Y-141033593D01*
X116907595Y-141033593D01*
G37*
D12*
G04 #@! TO.P,REF\002A\002A,4*
G04 #@! TO.N,N/C*
X111221507Y-142302811D03*
D13*
G04 #@! TD*
G04 #@! TO.N,N/C*
G04 #@! TO.C,REF\002A\002A*
G36*
X112342523Y-142516875D02*
X110440410Y-143134909D01*
X110100491Y-142088747D01*
X112002604Y-141470713D01*
X112342523Y-142516875D01*
X112342523Y-142516875D01*
G37*
D12*
G04 #@! TO.P,REF\002A\002A,3*
G04 #@! TO.N,N/C*
X110170849Y-139069219D03*
D13*
G04 #@! TD*
G04 #@! TO.N,N/C*
G04 #@! TO.C,REF\002A\002A*
G36*
X111291865Y-139283283D02*
X109389752Y-139901317D01*
X109049833Y-138855155D01*
X110951946Y-138237121D01*
X111291865Y-139283283D01*
X111291865Y-139283283D01*
G37*
D12*
G04 #@! TO.P,REF\002A\002A,2*
G04 #@! TO.N,N/C*
X106599349Y-139828364D03*
D13*
G04 #@! TD*
G04 #@! TO.N,N/C*
G04 #@! TO.C,REF\002A\002A*
G36*
X107651362Y-140270823D02*
X105662318Y-140479880D01*
X105547336Y-139385905D01*
X107536380Y-139176848D01*
X107651362Y-140270823D01*
X107651362Y-140270823D01*
G37*
D12*
G04 #@! TO.P,REF\002A\002A,1*
G04 #@! TO.N,N/C*
X106954746Y-143209739D03*
D13*
G04 #@! TD*
G04 #@! TO.N,N/C*
G04 #@! TO.C,REF\002A\002A*
G36*
X108006759Y-143652198D02*
X106017715Y-143861255D01*
X105902733Y-142767280D01*
X107891777Y-142558223D01*
X108006759Y-143652198D01*
X108006759Y-143652198D01*
G37*
D12*
G04 #@! TO.P,REF\002A\002A,4*
G04 #@! TO.N,N/C*
X102181041Y-143711476D03*
D13*
G04 #@! TD*
G04 #@! TO.N,N/C*
G04 #@! TO.C,REF\002A\002A*
G36*
X103233054Y-144153935D02*
X101244010Y-144362992D01*
X101129028Y-143269017D01*
X103118072Y-143059960D01*
X103233054Y-144153935D01*
X103233054Y-144153935D01*
G37*
D12*
G04 #@! TO.P,REF\002A\002A,3*
G04 #@! TO.N,N/C*
X101825644Y-140330101D03*
D13*
G04 #@! TD*
G04 #@! TO.N,N/C*
G04 #@! TO.C,REF\002A\002A*
G36*
X102877657Y-140772560D02*
X100888613Y-140981617D01*
X100773631Y-139887642D01*
X102762675Y-139678585D01*
X102877657Y-140772560D01*
X102877657Y-140772560D01*
G37*
D12*
G04 #@! TO.P,REF\002A\002A,2*
G04 #@! TO.N,N/C*
X98174356Y-140330101D03*
D13*
G04 #@! TD*
G04 #@! TO.N,N/C*
G04 #@! TO.C,REF\002A\002A*
G36*
X99111387Y-140981617D02*
X97122343Y-140772560D01*
X97237325Y-139678585D01*
X99226369Y-139887642D01*
X99111387Y-140981617D01*
X99111387Y-140981617D01*
G37*
D12*
G04 #@! TO.P,REF\002A\002A,1*
G04 #@! TO.N,N/C*
X97818959Y-143711476D03*
D13*
G04 #@! TD*
G04 #@! TO.N,N/C*
G04 #@! TO.C,REF\002A\002A*
G36*
X98755990Y-144362992D02*
X96766946Y-144153935D01*
X96881928Y-143059960D01*
X98870972Y-143269017D01*
X98755990Y-144362992D01*
X98755990Y-144362992D01*
G37*
D12*
G04 #@! TO.P,REF\002A\002A,4*
G04 #@! TO.N,N/C*
X93045254Y-143209739D03*
D13*
G04 #@! TD*
G04 #@! TO.N,N/C*
G04 #@! TO.C,REF\002A\002A*
G36*
X93982285Y-143861255D02*
X91993241Y-143652198D01*
X92108223Y-142558223D01*
X94097267Y-142767280D01*
X93982285Y-143861255D01*
X93982285Y-143861255D01*
G37*
D12*
G04 #@! TO.P,REF\002A\002A,3*
G04 #@! TO.N,N/C*
X93400651Y-139828364D03*
D13*
G04 #@! TD*
G04 #@! TO.N,N/C*
G04 #@! TO.C,REF\002A\002A*
G36*
X94337682Y-140479880D02*
X92348638Y-140270823D01*
X92463620Y-139176848D01*
X94452664Y-139385905D01*
X94337682Y-140479880D01*
X94337682Y-140479880D01*
G37*
D12*
G04 #@! TO.P,REF\002A\002A,2*
G04 #@! TO.N,N/C*
X89829151Y-139069219D03*
D13*
G04 #@! TD*
G04 #@! TO.N,N/C*
G04 #@! TO.C,REF\002A\002A*
G36*
X90610248Y-139901317D02*
X88708135Y-139283283D01*
X89048054Y-138237121D01*
X90950167Y-138855155D01*
X90610248Y-139901317D01*
X90610248Y-139901317D01*
G37*
D12*
G04 #@! TO.P,REF\002A\002A,1*
G04 #@! TO.N,N/C*
X88778493Y-142302811D03*
D13*
G04 #@! TD*
G04 #@! TO.N,N/C*
G04 #@! TO.C,REF\002A\002A*
G36*
X89559590Y-143134909D02*
X87657477Y-142516875D01*
X87997396Y-141470713D01*
X89899509Y-142088747D01*
X89559590Y-143134909D01*
X89559590Y-143134909D01*
G37*
D12*
G04 #@! TO.P,REF\002A\002A,4*
G04 #@! TO.N,N/C*
X84213421Y-140819529D03*
D13*
G04 #@! TD*
G04 #@! TO.N,N/C*
G04 #@! TO.C,REF\002A\002A*
G36*
X84994518Y-141651627D02*
X83092405Y-141033593D01*
X83432324Y-139987431D01*
X85334437Y-140605465D01*
X84994518Y-141651627D01*
X84994518Y-141651627D01*
G37*
D12*
G04 #@! TO.P,REF\002A\002A,3*
G04 #@! TO.N,N/C*
X85264079Y-137585937D03*
D13*
G04 #@! TD*
G04 #@! TO.N,N/C*
G04 #@! TO.C,REF\002A\002A*
G36*
X86045176Y-138418035D02*
X84143063Y-137800001D01*
X84482982Y-136753839D01*
X86385095Y-137371873D01*
X86045176Y-138418035D01*
X86045176Y-138418035D01*
G37*
D12*
G04 #@! TO.P,REF\002A\002A,2*
G04 #@! TO.N,N/C*
X81928461Y-136100824D03*
D13*
G04 #@! TD*
G04 #@! TO.N,N/C*
G04 #@! TO.C,REF\002A\002A*
G36*
X82519486Y-137077138D02*
X80787436Y-136077138D01*
X81337436Y-135124510D01*
X83069486Y-136124510D01*
X82519486Y-137077138D01*
X82519486Y-137077138D01*
G37*
D12*
G04 #@! TO.P,REF\002A\002A,1*
G04 #@! TO.N,N/C*
X80228461Y-139045310D03*
D13*
G04 #@! TD*
G04 #@! TO.N,N/C*
G04 #@! TO.C,REF\002A\002A*
G36*
X80819486Y-140021624D02*
X79087436Y-139021624D01*
X79637436Y-138068996D01*
X81369486Y-139068996D01*
X80819486Y-140021624D01*
X80819486Y-140021624D01*
G37*
D12*
G04 #@! TO.P,REF\002A\002A,4*
G04 #@! TO.N,N/C*
X76071539Y-136645310D03*
D13*
G04 #@! TD*
G04 #@! TO.N,N/C*
G04 #@! TO.C,REF\002A\002A*
G36*
X76662564Y-137621624D02*
X74930514Y-136621624D01*
X75480514Y-135668996D01*
X77212564Y-136668996D01*
X76662564Y-137621624D01*
X76662564Y-137621624D01*
G37*
D12*
G04 #@! TO.P,REF\002A\002A,3*
G04 #@! TO.N,N/C*
X77771539Y-133700824D03*
D13*
G04 #@! TD*
G04 #@! TO.N,N/C*
G04 #@! TO.C,REF\002A\002A*
G36*
X78362564Y-134677138D02*
X76630514Y-133677138D01*
X77180514Y-132724510D01*
X78912564Y-133724510D01*
X78362564Y-134677138D01*
X78362564Y-134677138D01*
G37*
D12*
G04 #@! TO.P,REF\002A\002A,2*
G04 #@! TO.N,N/C*
X74817585Y-131554650D03*
D13*
G04 #@! TD*
G04 #@! TO.N,N/C*
G04 #@! TO.C,REF\002A\002A*
G36*
X75192708Y-132632510D02*
X73706418Y-131294249D01*
X74442462Y-130476790D01*
X75928752Y-131815051D01*
X75192708Y-132632510D01*
X75192708Y-132632510D01*
G37*
D12*
G04 #@! TO.P,REF\002A\002A,1*
G04 #@! TO.N,N/C*
X72542541Y-134081343D03*
D13*
G04 #@! TD*
G04 #@! TO.N,N/C*
G04 #@! TO.C,REF\002A\002A*
G36*
X72917664Y-135159203D02*
X71431374Y-133820942D01*
X72167418Y-133003483D01*
X73653708Y-134341744D01*
X72917664Y-135159203D01*
X72917664Y-135159203D01*
G37*
D12*
G04 #@! TO.P,REF\002A\002A,4*
G04 #@! TO.N,N/C*
X68975445Y-130869516D03*
D13*
G04 #@! TD*
G04 #@! TO.N,N/C*
G04 #@! TO.C,REF\002A\002A*
G36*
X69350568Y-131947376D02*
X67864278Y-130609115D01*
X68600322Y-129791656D01*
X70086612Y-131129917D01*
X69350568Y-131947376D01*
X69350568Y-131947376D01*
G37*
D12*
G04 #@! TO.P,REF\002A\002A,3*
G04 #@! TO.N,N/C*
X71250489Y-128342823D03*
D13*
G04 #@! TD*
G04 #@! TO.N,N/C*
G04 #@! TO.C,REF\002A\002A*
G36*
X71625612Y-129420683D02*
X70139322Y-128082422D01*
X70875366Y-127264963D01*
X72361656Y-128603224D01*
X71625612Y-129420683D01*
X71625612Y-129420683D01*
G37*
D12*
G04 #@! TO.P,REF\002A\002A,2*
G04 #@! TO.N,N/C*
X68807299Y-125629387D03*
D13*
G04 #@! TD*
G04 #@! TO.N,N/C*
G04 #@! TO.C,REF\002A\002A*
G36*
X68950125Y-126761686D02*
X67774554Y-125143652D01*
X68664473Y-124497088D01*
X69840044Y-126115122D01*
X68950125Y-126761686D01*
X68950125Y-126761686D01*
G37*
D12*
G04 #@! TO.P,REF\002A\002A,1*
G04 #@! TO.N,N/C*
X66056642Y-127627857D03*
D13*
G04 #@! TD*
G04 #@! TO.N,N/C*
G04 #@! TO.C,REF\002A\002A*
G36*
X66199468Y-128760156D02*
X65023897Y-127142122D01*
X65913816Y-126495558D01*
X67089387Y-128113592D01*
X66199468Y-128760156D01*
X66199468Y-128760156D01*
G37*
D12*
G04 #@! TO.P,REF\002A\002A,4*
G04 #@! TO.N,N/C*
X63235273Y-123744575D03*
D13*
G04 #@! TD*
G04 #@! TO.N,N/C*
G04 #@! TO.C,REF\002A\002A*
G36*
X63378099Y-124876874D02*
X62202528Y-123258840D01*
X63092447Y-122612276D01*
X64268018Y-124230310D01*
X63378099Y-124876874D01*
X63378099Y-124876874D01*
G37*
D12*
G04 #@! TO.P,REF\002A\002A,3*
G04 #@! TO.N,N/C*
X65985930Y-121746105D03*
D13*
G04 #@! TD*
G04 #@! TO.N,N/C*
G04 #@! TO.C,REF\002A\002A*
G36*
X66128756Y-122878404D02*
X64953185Y-121260370D01*
X65843104Y-120613806D01*
X67018675Y-122231840D01*
X66128756Y-122878404D01*
X66128756Y-122878404D01*
G37*
D12*
G04 #@! TO.P,REF\002A\002A,2*
G04 #@! TO.N,N/C*
X64160286Y-118583996D03*
D13*
G04 #@! TD*
G04 #@! TO.N,N/C*
G04 #@! TO.C,REF\002A\002A*
G36*
X64064573Y-119721247D02*
X63251099Y-117894156D01*
X64255999Y-117446745D01*
X65069473Y-119273836D01*
X64064573Y-119721247D01*
X64064573Y-119721247D01*
G37*
D12*
G04 #@! TO.P,REF\002A\002A,1*
G04 #@! TO.N,N/C*
X61054232Y-119966900D03*
D13*
G04 #@! TD*
G04 #@! TO.N,N/C*
G04 #@! TO.C,REF\002A\002A*
G36*
X60958519Y-121104151D02*
X60145045Y-119277060D01*
X61149945Y-118829649D01*
X61963419Y-120656740D01*
X60958519Y-121104151D01*
X60958519Y-121104151D01*
G37*
D12*
G04 #@! TO.P,REF\002A\002A,4*
G04 #@! TO.N,N/C*
X59101896Y-115581882D03*
D13*
G04 #@! TD*
G04 #@! TO.N,N/C*
G04 #@! TO.C,REF\002A\002A*
G36*
X59006183Y-116719133D02*
X58192709Y-114892042D01*
X59197609Y-114444631D01*
X60011083Y-116271722D01*
X59006183Y-116719133D01*
X59006183Y-116719133D01*
G37*
D12*
G04 #@! TO.P,REF\002A\002A,3*
G04 #@! TO.N,N/C*
X62207950Y-114198978D03*
D13*
G04 #@! TD*
G04 #@! TO.N,N/C*
G04 #@! TO.C,REF\002A\002A*
G36*
X62112237Y-115336229D02*
X61298763Y-113509138D01*
X62303663Y-113061727D01*
X63117137Y-114888818D01*
X62112237Y-115336229D01*
X62112237Y-115336229D01*
G37*
D12*
G04 #@! TO.P,REF\002A\002A,2*
G04 #@! TO.N,N/C*
X61079640Y-110726395D03*
D13*
G04 #@! TD*
G04 #@! TO.N,N/C*
G04 #@! TO.C,REF\002A\002A*
G36*
X60749571Y-111818894D02*
X60333747Y-109862599D01*
X61409709Y-109633896D01*
X61825533Y-111590191D01*
X60749571Y-111818894D01*
X60749571Y-111818894D01*
G37*
D12*
G04 #@! TO.P,REF\002A\002A,1*
G04 #@! TO.N,N/C*
X57753938Y-111433295D03*
D13*
G04 #@! TD*
G04 #@! TO.N,N/C*
G04 #@! TO.C,REF\002A\002A*
G36*
X57423869Y-112525794D02*
X57008045Y-110569499D01*
X58084007Y-110340796D01*
X58499831Y-112297091D01*
X57423869Y-112525794D01*
X57423869Y-112525794D01*
G37*
D12*
G04 #@! TO.P,REF\002A\002A,4*
G04 #@! TO.N,N/C*
X56755962Y-106738187D03*
D13*
G04 #@! TD*
G04 #@! TO.N,N/C*
G04 #@! TO.C,REF\002A\002A*
G36*
X56425893Y-107830686D02*
X56010069Y-105874391D01*
X57086031Y-105645688D01*
X57501855Y-107601983D01*
X56425893Y-107830686D01*
X56425893Y-107830686D01*
G37*
D12*
G04 #@! TO.P,REF\002A\002A,3*
G04 #@! TO.N,N/C*
X60081664Y-106031287D03*
D13*
G04 #@! TD*
G04 #@! TO.N,N/C*
G04 #@! TO.C,REF\002A\002A*
G36*
X59751595Y-107123786D02*
X59335771Y-105167491D01*
X60411733Y-104938788D01*
X60827557Y-106895083D01*
X59751595Y-107123786D01*
X59751595Y-107123786D01*
G37*
D14*
G04 #@! TO.P,REF\002A\002A,2*
G04 #@! TO.N,N/C*
X59700000Y-102400000D03*
G04 #@! TO.P,REF\002A\002A,1*
X56300000Y-102400000D03*
G04 #@! TO.P,REF\002A\002A,4*
X56300000Y-97600000D03*
G04 #@! TO.P,REF\002A\002A,3*
X59700000Y-97600000D03*
G04 #@! TD*
D12*
G04 #@! TO.P,REF\002A\002A,2*
G04 #@! TO.N,N/C*
X60081664Y-93968713D03*
D13*
G04 #@! TD*
G04 #@! TO.N,N/C*
G04 #@! TO.C,REF\002A\002A*
G36*
X59335771Y-94832509D02*
X59751595Y-92876214D01*
X60827557Y-93104917D01*
X60411733Y-95061212D01*
X59335771Y-94832509D01*
X59335771Y-94832509D01*
G37*
D12*
G04 #@! TO.P,REF\002A\002A,1*
G04 #@! TO.N,N/C*
X56755962Y-93261813D03*
D13*
G04 #@! TD*
G04 #@! TO.N,N/C*
G04 #@! TO.C,REF\002A\002A*
G36*
X56010069Y-94125609D02*
X56425893Y-92169314D01*
X57501855Y-92398017D01*
X57086031Y-94354312D01*
X56010069Y-94125609D01*
X56010069Y-94125609D01*
G37*
D12*
G04 #@! TO.P,REF\002A\002A,4*
G04 #@! TO.N,N/C*
X57753938Y-88566705D03*
D13*
G04 #@! TD*
G04 #@! TO.N,N/C*
G04 #@! TO.C,REF\002A\002A*
G36*
X57008045Y-89430501D02*
X57423869Y-87474206D01*
X58499831Y-87702909D01*
X58084007Y-89659204D01*
X57008045Y-89430501D01*
X57008045Y-89430501D01*
G37*
D12*
G04 #@! TO.P,REF\002A\002A,3*
G04 #@! TO.N,N/C*
X61079640Y-89273605D03*
D13*
G04 #@! TD*
G04 #@! TO.N,N/C*
G04 #@! TO.C,REF\002A\002A*
G36*
X60333747Y-90137401D02*
X60749571Y-88181106D01*
X61825533Y-88409809D01*
X61409709Y-90366104D01*
X60333747Y-90137401D01*
X60333747Y-90137401D01*
G37*
D12*
G04 #@! TO.P,REF\002A\002A,2*
G04 #@! TO.N,N/C*
X62207950Y-85801022D03*
D13*
G04 #@! TD*
G04 #@! TO.N,N/C*
G04 #@! TO.C,REF\002A\002A*
G36*
X61298763Y-86490862D02*
X62112237Y-84663771D01*
X63117137Y-85111182D01*
X62303663Y-86938273D01*
X61298763Y-86490862D01*
X61298763Y-86490862D01*
G37*
D12*
G04 #@! TO.P,REF\002A\002A,1*
G04 #@! TO.N,N/C*
X59101896Y-84418118D03*
D13*
G04 #@! TD*
G04 #@! TO.N,N/C*
G04 #@! TO.C,REF\002A\002A*
G36*
X58192709Y-85107958D02*
X59006183Y-83280867D01*
X60011083Y-83728278D01*
X59197609Y-85555369D01*
X58192709Y-85107958D01*
X58192709Y-85107958D01*
G37*
D12*
G04 #@! TO.P,REF\002A\002A,4*
G04 #@! TO.N,N/C*
X61054232Y-80033100D03*
D13*
G04 #@! TD*
G04 #@! TO.N,N/C*
G04 #@! TO.C,REF\002A\002A*
G36*
X60145045Y-80722940D02*
X60958519Y-78895849D01*
X61963419Y-79343260D01*
X61149945Y-81170351D01*
X60145045Y-80722940D01*
X60145045Y-80722940D01*
G37*
D12*
G04 #@! TO.P,REF\002A\002A,3*
G04 #@! TO.N,N/C*
X64160286Y-81416004D03*
D13*
G04 #@! TD*
G04 #@! TO.N,N/C*
G04 #@! TO.C,REF\002A\002A*
G36*
X63251099Y-82105844D02*
X64064573Y-80278753D01*
X65069473Y-80726164D01*
X64255999Y-82553255D01*
X63251099Y-82105844D01*
X63251099Y-82105844D01*
G37*
D12*
G04 #@! TO.P,REF\002A\002A,2*
G04 #@! TO.N,N/C*
X65985930Y-78253895D03*
D13*
G04 #@! TD*
G04 #@! TO.N,N/C*
G04 #@! TO.C,REF\002A\002A*
G36*
X64953185Y-78739630D02*
X66128756Y-77121596D01*
X67018675Y-77768160D01*
X65843104Y-79386194D01*
X64953185Y-78739630D01*
X64953185Y-78739630D01*
G37*
D12*
G04 #@! TO.P,REF\002A\002A,1*
G04 #@! TO.N,N/C*
X63235273Y-76255425D03*
D13*
G04 #@! TD*
G04 #@! TO.N,N/C*
G04 #@! TO.C,REF\002A\002A*
G36*
X62202528Y-76741160D02*
X63378099Y-75123126D01*
X64268018Y-75769690D01*
X63092447Y-77387724D01*
X62202528Y-76741160D01*
X62202528Y-76741160D01*
G37*
D12*
G04 #@! TO.P,REF\002A\002A,4*
G04 #@! TO.N,N/C*
X66056642Y-72372143D03*
D13*
G04 #@! TD*
G04 #@! TO.N,N/C*
G04 #@! TO.C,REF\002A\002A*
G36*
X65023897Y-72857878D02*
X66199468Y-71239844D01*
X67089387Y-71886408D01*
X65913816Y-73504442D01*
X65023897Y-72857878D01*
X65023897Y-72857878D01*
G37*
D12*
G04 #@! TO.P,REF\002A\002A,3*
G04 #@! TO.N,N/C*
X68807299Y-74370613D03*
D13*
G04 #@! TD*
G04 #@! TO.N,N/C*
G04 #@! TO.C,REF\002A\002A*
G36*
X67774554Y-74856348D02*
X68950125Y-73238314D01*
X69840044Y-73884878D01*
X68664473Y-75502912D01*
X67774554Y-74856348D01*
X67774554Y-74856348D01*
G37*
D12*
G04 #@! TO.P,REF\002A\002A,2*
G04 #@! TO.N,N/C*
X71250489Y-71657177D03*
D13*
G04 #@! TD*
G04 #@! TO.N,N/C*
G04 #@! TO.C,REF\002A\002A*
G36*
X70139322Y-71917578D02*
X71625612Y-70579317D01*
X72361656Y-71396776D01*
X70875366Y-72735037D01*
X70139322Y-71917578D01*
X70139322Y-71917578D01*
G37*
D12*
G04 #@! TO.P,REF\002A\002A,1*
G04 #@! TO.N,N/C*
X68975445Y-69130484D03*
D13*
G04 #@! TD*
G04 #@! TO.N,N/C*
G04 #@! TO.C,REF\002A\002A*
G36*
X67864278Y-69390885D02*
X69350568Y-68052624D01*
X70086612Y-68870083D01*
X68600322Y-70208344D01*
X67864278Y-69390885D01*
X67864278Y-69390885D01*
G37*
D12*
G04 #@! TO.P,REF\002A\002A,4*
G04 #@! TO.N,N/C*
X72542541Y-65918657D03*
D13*
G04 #@! TD*
G04 #@! TO.N,N/C*
G04 #@! TO.C,REF\002A\002A*
G36*
X71431374Y-66179058D02*
X72917664Y-64840797D01*
X73653708Y-65658256D01*
X72167418Y-66996517D01*
X71431374Y-66179058D01*
X71431374Y-66179058D01*
G37*
D12*
G04 #@! TO.P,REF\002A\002A,3*
G04 #@! TO.N,N/C*
X74817585Y-68445350D03*
D13*
G04 #@! TD*
G04 #@! TO.N,N/C*
G04 #@! TO.C,REF\002A\002A*
G36*
X73706418Y-68705751D02*
X75192708Y-67367490D01*
X75928752Y-68184949D01*
X74442462Y-69523210D01*
X73706418Y-68705751D01*
X73706418Y-68705751D01*
G37*
D12*
G04 #@! TO.P,REF\002A\002A,2*
G04 #@! TO.N,N/C*
X77771539Y-66299176D03*
D13*
G04 #@! TD*
G04 #@! TO.N,N/C*
G04 #@! TO.C,REF\002A\002A*
G36*
X76630514Y-66322862D02*
X78362564Y-65322862D01*
X78912564Y-66275490D01*
X77180514Y-67275490D01*
X76630514Y-66322862D01*
X76630514Y-66322862D01*
G37*
D12*
G04 #@! TO.P,REF\002A\002A,1*
G04 #@! TO.N,N/C*
X76071539Y-63354690D03*
D13*
G04 #@! TD*
G04 #@! TO.N,N/C*
G04 #@! TO.C,REF\002A\002A*
G36*
X74930514Y-63378376D02*
X76662564Y-62378376D01*
X77212564Y-63331004D01*
X75480514Y-64331004D01*
X74930514Y-63378376D01*
X74930514Y-63378376D01*
G37*
D12*
G04 #@! TO.P,REF\002A\002A,4*
G04 #@! TO.N,N/C*
X80228461Y-60954690D03*
D13*
G04 #@! TD*
G04 #@! TO.N,N/C*
G04 #@! TO.C,REF\002A\002A*
G36*
X79087436Y-60978376D02*
X80819486Y-59978376D01*
X81369486Y-60931004D01*
X79637436Y-61931004D01*
X79087436Y-60978376D01*
X79087436Y-60978376D01*
G37*
D12*
G04 #@! TO.P,REF\002A\002A,3*
G04 #@! TO.N,N/C*
X81928461Y-63899176D03*
D13*
G04 #@! TD*
G04 #@! TO.N,N/C*
G04 #@! TO.C,REF\002A\002A*
G36*
X80787436Y-63922862D02*
X82519486Y-62922862D01*
X83069486Y-63875490D01*
X81337436Y-64875490D01*
X80787436Y-63922862D01*
X80787436Y-63922862D01*
G37*
D12*
G04 #@! TO.P,REF\002A\002A,2*
G04 #@! TO.N,N/C*
X85264079Y-62414063D03*
D13*
G04 #@! TD*
G04 #@! TO.N,N/C*
G04 #@! TO.C,REF\002A\002A*
G36*
X84143063Y-62199999D02*
X86045176Y-61581965D01*
X86385095Y-62628127D01*
X84482982Y-63246161D01*
X84143063Y-62199999D01*
X84143063Y-62199999D01*
G37*
D12*
G04 #@! TO.P,REF\002A\002A,1*
G04 #@! TO.N,N/C*
X84213421Y-59180471D03*
D13*
G04 #@! TD*
G04 #@! TO.N,N/C*
G04 #@! TO.C,REF\002A\002A*
G36*
X83092405Y-58966407D02*
X84994518Y-58348373D01*
X85334437Y-59394535D01*
X83432324Y-60012569D01*
X83092405Y-58966407D01*
X83092405Y-58966407D01*
G37*
D12*
G04 #@! TO.P,REF\002A\002A,4*
G04 #@! TO.N,N/C*
X88778493Y-57697189D03*
D13*
G04 #@! TD*
G04 #@! TO.N,N/C*
G04 #@! TO.C,REF\002A\002A*
G36*
X87657477Y-57483125D02*
X89559590Y-56865091D01*
X89899509Y-57911253D01*
X87997396Y-58529287D01*
X87657477Y-57483125D01*
X87657477Y-57483125D01*
G37*
D12*
G04 #@! TO.P,REF\002A\002A,3*
G04 #@! TO.N,N/C*
X89829151Y-60930781D03*
D13*
G04 #@! TD*
G04 #@! TO.N,N/C*
G04 #@! TO.C,REF\002A\002A*
G36*
X88708135Y-60716717D02*
X90610248Y-60098683D01*
X90950167Y-61144845D01*
X89048054Y-61762879D01*
X88708135Y-60716717D01*
X88708135Y-60716717D01*
G37*
D12*
G04 #@! TO.P,REF\002A\002A,2*
G04 #@! TO.N,N/C*
X93400651Y-60171636D03*
D13*
G04 #@! TD*
G04 #@! TO.N,N/C*
G04 #@! TO.C,REF\002A\002A*
G36*
X92348638Y-59729177D02*
X94337682Y-59520120D01*
X94452664Y-60614095D01*
X92463620Y-60823152D01*
X92348638Y-59729177D01*
X92348638Y-59729177D01*
G37*
D12*
G04 #@! TO.P,REF\002A\002A,1*
G04 #@! TO.N,N/C*
X93045254Y-56790261D03*
D13*
G04 #@! TD*
G04 #@! TO.N,N/C*
G04 #@! TO.C,REF\002A\002A*
G36*
X91993241Y-56347802D02*
X93982285Y-56138745D01*
X94097267Y-57232720D01*
X92108223Y-57441777D01*
X91993241Y-56347802D01*
X91993241Y-56347802D01*
G37*
D12*
G04 #@! TO.P,REF\002A\002A,4*
G04 #@! TO.N,N/C*
X97818959Y-56288524D03*
D13*
G04 #@! TD*
G04 #@! TO.N,N/C*
G04 #@! TO.C,REF\002A\002A*
G36*
X96766946Y-55846065D02*
X98755990Y-55637008D01*
X98870972Y-56730983D01*
X96881928Y-56940040D01*
X96766946Y-55846065D01*
X96766946Y-55846065D01*
G37*
D12*
G04 #@! TO.P,REF\002A\002A,3*
G04 #@! TO.N,N/C*
X98174356Y-59669899D03*
D13*
G04 #@! TD*
G04 #@! TO.N,N/C*
G04 #@! TO.C,REF\002A\002A*
G36*
X97122343Y-59227440D02*
X99111387Y-59018383D01*
X99226369Y-60112358D01*
X97237325Y-60321415D01*
X97122343Y-59227440D01*
X97122343Y-59227440D01*
G37*
D12*
G04 #@! TO.P,REF\002A\002A,2*
G04 #@! TO.N,N/C*
X101825644Y-59669899D03*
D13*
G04 #@! TD*
G04 #@! TO.N,N/C*
G04 #@! TO.C,REF\002A\002A*
G36*
X100888613Y-59018383D02*
X102877657Y-59227440D01*
X102762675Y-60321415D01*
X100773631Y-60112358D01*
X100888613Y-59018383D01*
X100888613Y-59018383D01*
G37*
D12*
G04 #@! TO.P,REF\002A\002A,1*
G04 #@! TO.N,N/C*
X102181041Y-56288524D03*
D13*
G04 #@! TD*
G04 #@! TO.N,N/C*
G04 #@! TO.C,REF\002A\002A*
G36*
X101244010Y-55637008D02*
X103233054Y-55846065D01*
X103118072Y-56940040D01*
X101129028Y-56730983D01*
X101244010Y-55637008D01*
X101244010Y-55637008D01*
G37*
D12*
G04 #@! TO.P,REF\002A\002A,4*
G04 #@! TO.N,N/C*
X106954746Y-56790261D03*
D13*
G04 #@! TD*
G04 #@! TO.N,N/C*
G04 #@! TO.C,REF\002A\002A*
G36*
X106017715Y-56138745D02*
X108006759Y-56347802D01*
X107891777Y-57441777D01*
X105902733Y-57232720D01*
X106017715Y-56138745D01*
X106017715Y-56138745D01*
G37*
D12*
G04 #@! TO.P,REF\002A\002A,3*
G04 #@! TO.N,N/C*
X106599349Y-60171636D03*
D13*
G04 #@! TD*
G04 #@! TO.N,N/C*
G04 #@! TO.C,REF\002A\002A*
G36*
X105662318Y-59520120D02*
X107651362Y-59729177D01*
X107536380Y-60823152D01*
X105547336Y-60614095D01*
X105662318Y-59520120D01*
X105662318Y-59520120D01*
G37*
D12*
G04 #@! TO.P,REF\002A\002A,2*
G04 #@! TO.N,N/C*
X110170849Y-60930781D03*
D13*
G04 #@! TD*
G04 #@! TO.N,N/C*
G04 #@! TO.C,REF\002A\002A*
G36*
X109389752Y-60098683D02*
X111291865Y-60716717D01*
X110951946Y-61762879D01*
X109049833Y-61144845D01*
X109389752Y-60098683D01*
X109389752Y-60098683D01*
G37*
D12*
G04 #@! TO.P,REF\002A\002A,1*
G04 #@! TO.N,N/C*
X111221507Y-57697189D03*
D13*
G04 #@! TD*
G04 #@! TO.N,N/C*
G04 #@! TO.C,REF\002A\002A*
G36*
X110440410Y-56865091D02*
X112342523Y-57483125D01*
X112002604Y-58529287D01*
X110100491Y-57911253D01*
X110440410Y-56865091D01*
X110440410Y-56865091D01*
G37*
D12*
G04 #@! TO.P,REF\002A\002A,4*
G04 #@! TO.N,N/C*
X115786579Y-59180471D03*
D13*
G04 #@! TD*
G04 #@! TO.N,N/C*
G04 #@! TO.C,REF\002A\002A*
G36*
X115005482Y-58348373D02*
X116907595Y-58966407D01*
X116567676Y-60012569D01*
X114665563Y-59394535D01*
X115005482Y-58348373D01*
X115005482Y-58348373D01*
G37*
D12*
G04 #@! TO.P,REF\002A\002A,3*
G04 #@! TO.N,N/C*
X114735921Y-62414063D03*
D13*
G04 #@! TD*
G04 #@! TO.N,N/C*
G04 #@! TO.C,REF\002A\002A*
G36*
X113954824Y-61581965D02*
X115856937Y-62199999D01*
X115517018Y-63246161D01*
X113614905Y-62628127D01*
X113954824Y-61581965D01*
X113954824Y-61581965D01*
G37*
D12*
G04 #@! TO.P,REF\002A\002A,2*
G04 #@! TO.N,N/C*
X118071539Y-63899176D03*
D13*
G04 #@! TD*
G04 #@! TO.N,N/C*
G04 #@! TO.C,REF\002A\002A*
G36*
X117480514Y-62922862D02*
X119212564Y-63922862D01*
X118662564Y-64875490D01*
X116930514Y-63875490D01*
X117480514Y-62922862D01*
X117480514Y-62922862D01*
G37*
D12*
G04 #@! TO.P,REF\002A\002A,1*
G04 #@! TO.N,N/C*
X119771539Y-60954690D03*
D13*
G04 #@! TD*
G04 #@! TO.N,N/C*
G04 #@! TO.C,REF\002A\002A*
G36*
X119180514Y-59978376D02*
X120912564Y-60978376D01*
X120362564Y-61931004D01*
X118630514Y-60931004D01*
X119180514Y-59978376D01*
X119180514Y-59978376D01*
G37*
D12*
G04 #@! TO.P,REF\002A\002A,4*
G04 #@! TO.N,N/C*
X123928461Y-63354690D03*
D13*
G04 #@! TD*
G04 #@! TO.N,N/C*
G04 #@! TO.C,REF\002A\002A*
G36*
X123337436Y-62378376D02*
X125069486Y-63378376D01*
X124519486Y-64331004D01*
X122787436Y-63331004D01*
X123337436Y-62378376D01*
X123337436Y-62378376D01*
G37*
D12*
G04 #@! TO.P,REF\002A\002A,3*
G04 #@! TO.N,N/C*
X122228461Y-66299176D03*
D13*
G04 #@! TD*
G04 #@! TO.N,N/C*
G04 #@! TO.C,REF\002A\002A*
G36*
X121637436Y-65322862D02*
X123369486Y-66322862D01*
X122819486Y-67275490D01*
X121087436Y-66275490D01*
X121637436Y-65322862D01*
X121637436Y-65322862D01*
G37*
D12*
G04 #@! TO.P,REF\002A\002A,2*
G04 #@! TO.N,N/C*
X125182415Y-68445350D03*
D13*
G04 #@! TD*
G04 #@! TO.N,N/C*
G04 #@! TO.C,REF\002A\002A*
G36*
X124807292Y-67367490D02*
X126293582Y-68705751D01*
X125557538Y-69523210D01*
X124071248Y-68184949D01*
X124807292Y-67367490D01*
X124807292Y-67367490D01*
G37*
D12*
G04 #@! TO.P,REF\002A\002A,1*
G04 #@! TO.N,N/C*
X127457459Y-65918657D03*
D13*
G04 #@! TD*
G04 #@! TO.N,N/C*
G04 #@! TO.C,REF\002A\002A*
G36*
X127082336Y-64840797D02*
X128568626Y-66179058D01*
X127832582Y-66996517D01*
X126346292Y-65658256D01*
X127082336Y-64840797D01*
X127082336Y-64840797D01*
G37*
D12*
G04 #@! TO.P,REF\002A\002A,4*
G04 #@! TO.N,N/C*
X131024555Y-69130484D03*
D13*
G04 #@! TD*
G04 #@! TO.N,N/C*
G04 #@! TO.C,REF\002A\002A*
G36*
X130649432Y-68052624D02*
X132135722Y-69390885D01*
X131399678Y-70208344D01*
X129913388Y-68870083D01*
X130649432Y-68052624D01*
X130649432Y-68052624D01*
G37*
D12*
G04 #@! TO.P,REF\002A\002A,3*
G04 #@! TO.N,N/C*
X128749511Y-71657177D03*
D13*
G04 #@! TD*
G04 #@! TO.N,N/C*
G04 #@! TO.C,REF\002A\002A*
G36*
X128374388Y-70579317D02*
X129860678Y-71917578D01*
X129124634Y-72735037D01*
X127638344Y-71396776D01*
X128374388Y-70579317D01*
X128374388Y-70579317D01*
G37*
D12*
G04 #@! TO.P,REF\002A\002A,2*
G04 #@! TO.N,N/C*
X131192701Y-74370613D03*
D13*
G04 #@! TD*
G04 #@! TO.N,N/C*
G04 #@! TO.C,REF\002A\002A*
G36*
X131049875Y-73238314D02*
X132225446Y-74856348D01*
X131335527Y-75502912D01*
X130159956Y-73884878D01*
X131049875Y-73238314D01*
X131049875Y-73238314D01*
G37*
D12*
G04 #@! TO.P,REF\002A\002A,1*
G04 #@! TO.N,N/C*
X133943358Y-72372143D03*
D13*
G04 #@! TD*
G04 #@! TO.N,N/C*
G04 #@! TO.C,REF\002A\002A*
G36*
X133800532Y-71239844D02*
X134976103Y-72857878D01*
X134086184Y-73504442D01*
X132910613Y-71886408D01*
X133800532Y-71239844D01*
X133800532Y-71239844D01*
G37*
D12*
G04 #@! TO.P,REF\002A\002A,4*
G04 #@! TO.N,N/C*
X136764727Y-76255425D03*
D13*
G04 #@! TD*
G04 #@! TO.N,N/C*
G04 #@! TO.C,REF\002A\002A*
G36*
X136621901Y-75123126D02*
X137797472Y-76741160D01*
X136907553Y-77387724D01*
X135731982Y-75769690D01*
X136621901Y-75123126D01*
X136621901Y-75123126D01*
G37*
D12*
G04 #@! TO.P,REF\002A\002A,3*
G04 #@! TO.N,N/C*
X134014070Y-78253895D03*
D13*
G04 #@! TD*
G04 #@! TO.N,N/C*
G04 #@! TO.C,REF\002A\002A*
G36*
X133871244Y-77121596D02*
X135046815Y-78739630D01*
X134156896Y-79386194D01*
X132981325Y-77768160D01*
X133871244Y-77121596D01*
X133871244Y-77121596D01*
G37*
D12*
G04 #@! TO.P,REF\002A\002A,2*
G04 #@! TO.N,N/C*
X135839714Y-81416004D03*
D13*
G04 #@! TD*
G04 #@! TO.N,N/C*
G04 #@! TO.C,REF\002A\002A*
G36*
X135935427Y-80278753D02*
X136748901Y-82105844D01*
X135744001Y-82553255D01*
X134930527Y-80726164D01*
X135935427Y-80278753D01*
X135935427Y-80278753D01*
G37*
D12*
G04 #@! TO.P,REF\002A\002A,1*
G04 #@! TO.N,N/C*
X138945768Y-80033100D03*
D13*
G04 #@! TD*
G04 #@! TO.N,N/C*
G04 #@! TO.C,REF\002A\002A*
G36*
X139041481Y-78895849D02*
X139854955Y-80722940D01*
X138850055Y-81170351D01*
X138036581Y-79343260D01*
X139041481Y-78895849D01*
X139041481Y-78895849D01*
G37*
D12*
G04 #@! TO.P,REF\002A\002A,4*
G04 #@! TO.N,N/C*
X140898104Y-84418118D03*
D13*
G04 #@! TD*
G04 #@! TO.N,N/C*
G04 #@! TO.C,REF\002A\002A*
G36*
X140993817Y-83280867D02*
X141807291Y-85107958D01*
X140802391Y-85555369D01*
X139988917Y-83728278D01*
X140993817Y-83280867D01*
X140993817Y-83280867D01*
G37*
D12*
G04 #@! TO.P,REF\002A\002A,3*
G04 #@! TO.N,N/C*
X137792050Y-85801022D03*
D13*
G04 #@! TD*
G04 #@! TO.N,N/C*
G04 #@! TO.C,REF\002A\002A*
G36*
X137887763Y-84663771D02*
X138701237Y-86490862D01*
X137696337Y-86938273D01*
X136882863Y-85111182D01*
X137887763Y-84663771D01*
X137887763Y-84663771D01*
G37*
D12*
G04 #@! TO.P,REF\002A\002A,2*
G04 #@! TO.N,N/C*
X138920360Y-89273605D03*
D13*
G04 #@! TD*
G04 #@! TO.N,N/C*
G04 #@! TO.C,REF\002A\002A*
G36*
X139250429Y-88181106D02*
X139666253Y-90137401D01*
X138590291Y-90366104D01*
X138174467Y-88409809D01*
X139250429Y-88181106D01*
X139250429Y-88181106D01*
G37*
D12*
G04 #@! TO.P,REF\002A\002A,1*
G04 #@! TO.N,N/C*
X142246062Y-88566705D03*
D13*
G04 #@! TD*
G04 #@! TO.N,N/C*
G04 #@! TO.C,REF\002A\002A*
G36*
X142576131Y-87474206D02*
X142991955Y-89430501D01*
X141915993Y-89659204D01*
X141500169Y-87702909D01*
X142576131Y-87474206D01*
X142576131Y-87474206D01*
G37*
D12*
G04 #@! TO.P,REF\002A\002A,4*
G04 #@! TO.N,N/C*
X143244038Y-93261813D03*
D13*
G04 #@! TD*
G04 #@! TO.N,N/C*
G04 #@! TO.C,REF\002A\002A*
G36*
X143574107Y-92169314D02*
X143989931Y-94125609D01*
X142913969Y-94354312D01*
X142498145Y-92398017D01*
X143574107Y-92169314D01*
X143574107Y-92169314D01*
G37*
D12*
G04 #@! TO.P,REF\002A\002A,3*
G04 #@! TO.N,N/C*
X139918336Y-93968713D03*
D13*
G04 #@! TD*
G04 #@! TO.N,N/C*
G04 #@! TO.C,REF\002A\002A*
G36*
X140248405Y-92876214D02*
X140664229Y-94832509D01*
X139588267Y-95061212D01*
X139172443Y-93104917D01*
X140248405Y-92876214D01*
X140248405Y-92876214D01*
G37*
D14*
G04 #@! TO.P,REF\002A\002A,3*
G04 #@! TO.N,N/C*
X140300000Y-102400000D03*
G04 #@! TO.P,REF\002A\002A,4*
X143700000Y-102400000D03*
G04 #@! TO.P,REF\002A\002A,1*
X143700000Y-97600000D03*
G04 #@! TO.P,REF\002A\002A,2*
X140300000Y-97600000D03*
G04 #@! TD*
D15*
G04 #@! TO.N,*
X58000000Y-100000000D03*
X62700000Y-100000000D03*
X54100000Y-100000000D03*
X63515094Y-107755106D03*
X65924754Y-115171277D03*
X69823666Y-121924390D03*
X75041428Y-127719302D03*
X81350000Y-132302748D03*
X88473666Y-135474408D03*
X96101088Y-137095667D03*
X103898912Y-137095667D03*
X111526334Y-135474408D03*
X118650000Y-132302748D03*
X124958572Y-127719302D03*
X130176334Y-121924390D03*
X134075246Y-115171277D03*
X136484906Y-107755106D03*
X137300000Y-100000000D03*
X136484906Y-92244894D03*
X134075246Y-84828723D03*
X130176334Y-78075610D03*
X124958572Y-72280698D03*
X118650000Y-67697252D03*
X111526334Y-64525592D03*
X103898912Y-62904333D03*
X96101088Y-62904333D03*
X88473666Y-64525592D03*
X81350000Y-67697252D03*
X75041428Y-72280698D03*
X69823666Y-78075610D03*
X65924754Y-84828723D03*
X63515094Y-92244894D03*
X55103025Y-109543147D03*
X58068263Y-118669212D03*
X62866120Y-126979343D03*
X69286905Y-134110347D03*
X77050000Y-139750566D03*
X85816120Y-143653494D03*
X95202144Y-145648555D03*
X104797856Y-145648555D03*
X114183880Y-143653494D03*
X122950000Y-139750566D03*
X130713095Y-134110347D03*
X137133880Y-126979343D03*
X141931737Y-118669212D03*
X144896975Y-109543147D03*
X145900000Y-100000000D03*
X144896975Y-90456853D03*
X141931737Y-81330788D03*
X137133880Y-73020657D03*
X130713095Y-65889653D03*
X122950000Y-60249434D03*
X114183880Y-56346506D03*
X104797856Y-54351445D03*
X95202144Y-54351445D03*
X85816120Y-56346506D03*
X77050000Y-60249434D03*
X69286905Y-65889653D03*
X62866120Y-73020657D03*
X58068263Y-81330788D03*
X55103025Y-90456853D03*
G04 #@! TD*
D16*
G04 #@! TO.N,*
X58000000Y-100000000D02*
X59700000Y-101700000D01*
X59700000Y-101700000D02*
X59700000Y-102400000D01*
G04 #@! TD*
M02*
